<svg width="636" height="405" viewBox="0 0 636 405" fill="none" xmlns="http://www.w3.org/2000/svg">
    <g clip-path="url(#clip0_5_2)">
    <path d="M494.966 48.9943L503.238 35.6504L499.152 33.0612C497.956 32.3642 497.358 30.97 497.457 29.5759C497.557 28.7792 497.557 28.0821 497.557 27.2855C497.557 25.8913 498.255 24.4972 499.551 23.8997L503.737 21.6093L496.361 7.7674L492.175 10.0578C490.979 10.7549 489.484 10.6553 488.387 9.85862C487.69 9.36071 486.992 8.96238 486.294 8.56405C485.098 7.86698 484.401 6.57241 484.401 5.17826L484.6 0.398328L468.653 0L468.453 4.77994C468.453 6.17408 467.556 7.36907 466.36 7.96656C465.961 8.16572 465.662 8.36489 465.264 8.46447C464.865 8.66363 464.566 8.8628 464.167 9.06196C462.971 9.75904 461.476 9.75904 460.28 9.06196L456.194 6.47283L448.021 19.9164L452.107 22.5055C453.303 23.2026 453.901 24.5968 453.802 25.9909C453.702 26.7876 453.702 27.4846 453.702 28.2813C453.702 29.6754 453.004 31.0696 451.709 31.6671L447.522 33.9575L454.898 47.7994L459.084 45.509C460.38 44.8119 461.875 45.0111 462.971 45.8077C463.569 46.206 464.267 46.6044 464.865 47.0027C466.061 47.6998 466.858 48.9943 466.858 50.3885L466.759 55.268L482.407 55.7659L482.507 50.986C482.507 49.5918 483.404 48.3969 484.7 47.7994C485.098 47.6002 485.397 47.5006 485.696 47.3014C485.995 47.1023 486.394 46.9031 486.693 46.704C487.889 46.0069 489.384 45.9073 490.58 46.704L494.966 48.9943ZM483.105 38.2395C476.228 43.119 466.659 40.2311 463.569 32.3642C461.476 26.9867 463.37 20.7131 468.055 17.4268C474.932 12.5473 484.5 15.4352 487.59 23.3022C489.683 28.6796 487.789 34.9533 483.105 38.2395Z" fill="#EBEBEB"/>
    <path d="M10.8641 121.988C11.7612 122.486 12.1598 123.382 12.1598 124.378C12.1598 124.677 12.1598 124.876 12.1598 125.175C12.1598 125.473 12.1598 125.672 12.1598 125.971C12.2595 126.967 11.7612 127.863 10.8641 128.361L7.97366 130.154L13.4556 139.614L16.346 137.921C17.2431 137.423 18.2398 137.523 19.0371 138.021C19.5355 138.319 19.9342 138.618 20.4325 138.817C21.3296 139.216 21.8279 140.112 21.8279 141.108V144.493H32.7917V141.108C32.7917 140.112 33.3897 139.216 34.1871 138.817C34.6855 138.618 35.1838 138.319 35.5825 138.021C36.3799 137.523 37.4762 137.423 38.2736 137.921L41.1641 139.614L46.646 130.154L43.7555 128.461C42.8585 127.963 42.4598 127.067 42.4598 126.071C42.4598 125.772 42.4598 125.573 42.4598 125.274C42.4598 124.975 42.4598 124.776 42.4598 124.478C42.3601 123.482 42.8585 122.585 43.7555 122.088L46.646 120.395L41.1641 110.934L38.2736 112.627C37.3766 113.125 36.3799 113.026 35.5825 112.528C35.0841 112.229 34.6855 111.93 34.1871 111.731C33.2901 111.333 32.7917 110.436 32.7917 109.441V106.055H21.8279V109.441C21.8279 110.436 21.2299 111.333 20.4325 111.731C19.9342 111.93 19.4358 112.229 19.0371 112.528C18.2398 113.026 17.1434 113.125 16.346 112.627L13.4556 110.934L7.97366 120.295L10.8641 121.988ZM27.5092 116.212C32.4927 116.212 36.4795 120.195 36.4795 125.175C36.4795 130.154 32.4927 134.137 27.5092 134.137C22.5256 134.137 18.5388 130.154 18.5388 125.175C18.4391 120.295 22.5256 116.212 27.5092 116.212Z" fill="#EBEBEB"/>
    <path d="M591.946 151.165C592.843 151.663 593.241 152.56 593.241 153.555C593.241 153.854 593.241 154.053 593.241 154.352C593.241 154.651 593.241 154.85 593.241 155.149C593.341 156.145 592.843 157.041 591.946 157.539L589.055 159.232L594.537 168.692L597.427 166.999C598.324 166.501 599.321 166.601 600.118 167.099C600.617 167.397 601.016 167.696 601.514 167.895C602.411 168.294 602.909 169.19 602.909 170.186V173.571H613.873V170.285C613.873 169.289 614.471 168.393 615.268 167.995C615.767 167.796 616.265 167.497 616.664 167.198C617.461 166.7 618.558 166.601 619.355 167.099L622.245 168.791L627.727 159.331L624.837 157.638C623.94 157.14 623.541 156.244 623.541 155.248C623.541 154.95 623.541 154.75 623.541 154.452C623.541 154.153 623.541 153.954 623.541 153.655C623.441 152.659 623.94 151.763 624.837 151.265L627.727 149.572L622.245 140.112L619.355 141.805C618.458 142.303 617.461 142.203 616.664 141.705C616.166 141.406 615.767 141.108 615.268 140.909C614.371 140.51 613.873 139.614 613.873 138.618V135.232H602.909V138.618C602.909 139.614 602.311 140.51 601.514 140.909C601.016 141.108 600.517 141.406 600.118 141.705C599.321 142.203 598.225 142.303 597.427 141.805L594.537 140.112L589.055 149.572L591.946 151.165ZM608.591 145.39C613.574 145.39 617.561 149.373 617.561 154.352C617.561 159.331 613.574 163.314 608.591 163.314C603.607 163.314 599.62 159.331 599.62 154.352C599.52 149.373 603.607 145.39 608.591 145.39Z" fill="#EBEBEB"/>
    <path d="M631.315 81.4581H629.82V80.4623H630.319V79.9644H631.315V81.4581Z" fill="#EBEBEB"/>
    <path d="M627.927 81.4581H625.933V80.4622H627.827V81.4581H627.927ZM624.039 81.4581H622.146V80.4622H624.039V81.4581ZM620.152 81.4581H618.159V80.4622H620.152V81.4581ZM616.265 81.4581H614.272V80.4622H616.265V81.4581ZM612.378 81.4581H610.484V80.4622H612.378V81.4581ZM608.491 81.4581H606.597V80.4622H608.491V81.4581ZM604.604 81.4581H602.61V80.4622H604.604V81.4581ZM600.716 81.4581H598.723V80.4622H600.716V81.4581ZM596.829 81.4581H594.936V80.4622H596.829V81.4581ZM592.942 81.4581H591.048V80.4622H592.942V81.4581ZM589.055 81.4581H587.062V80.4622H589.055V81.4581ZM585.168 81.4581H583.274V80.4622H585.168V81.4581ZM581.281 81.4581H579.387V80.4622H581.281V81.4581ZM577.393 81.4581H575.5V80.4622H577.393V81.4581ZM573.506 81.4581H571.513V80.4622H573.506V81.4581ZM569.619 81.4581H567.725V80.4622H569.619V81.4581ZM565.732 81.4581H563.838V80.4622H565.732V81.4581Z" fill="#EBEBEB"/>
    <path d="M561.845 81.4581H560.35V79.9644H561.347V80.4623H561.845V81.4581Z" fill="#EBEBEB"/>
    <path d="M561.347 78.0723H560.35V76.1802H561.347V78.0723ZM561.347 74.1886H560.35V72.2965H561.347V74.1886ZM561.347 70.3049H560.35V68.4128H561.347V70.3049ZM561.347 66.4212H560.35V64.5291H561.347V66.4212ZM561.347 62.5375H560.35V60.6454H561.347V62.5375ZM561.347 58.6538H560.35V56.7617H561.347V58.6538ZM561.347 54.7701H560.35V52.7785H561.347V54.7701ZM561.347 50.8864H560.35V48.9944H561.347V50.8864ZM561.347 47.0027H560.35V45.1106H561.347V47.0027ZM561.347 43.119H560.35V41.227H561.347V43.119ZM561.347 39.2353H560.35V37.3433H561.347V39.2353ZM561.347 35.3516H560.35V33.4596H561.347V35.3516ZM561.347 31.4679H560.35V29.5759H561.347V31.4679ZM561.347 27.5842H560.35V25.6922H561.347V27.5842ZM561.347 23.7005H560.35V21.8085H561.347V23.7005ZM561.347 19.8168H560.35V17.9248H561.347V19.8168ZM561.347 15.9331H560.35V13.9415H561.347V15.9331Z" fill="#EBEBEB"/>
    <path d="M561.347 12.0494H560.35V10.5557H561.845V11.5515H561.347V12.0494Z" fill="#EBEBEB"/>
    <path d="M627.927 11.5515H625.933V10.5557H627.827V11.5515H627.927ZM624.039 11.5515H622.146V10.5557H624.039V11.5515ZM620.152 11.5515H618.159V10.5557H620.152V11.5515ZM616.265 11.5515H614.371V10.5557H616.265V11.5515ZM612.378 11.5515H610.484V10.5557H612.378V11.5515ZM608.491 11.5515H606.597V10.5557H608.491V11.5515ZM604.604 11.5515H602.61V10.5557H604.604V11.5515ZM600.716 11.5515H598.823V10.5557H600.716V11.5515ZM596.829 11.5515H594.936V10.5557H596.829V11.5515ZM592.942 11.5515H590.949V10.5557H592.942V11.5515ZM589.055 11.5515H587.062V10.5557H589.055V11.5515ZM585.168 11.5515H583.274V10.5557H585.168V11.5515ZM581.281 11.5515H579.387V10.5557H581.281V11.5515ZM577.393 11.5515H575.4V10.5557H577.393V11.5515ZM573.506 11.5515H571.513V10.5557H573.506V11.5515ZM569.619 11.5515H567.725V10.5557H569.619V11.5515ZM565.732 11.5515H563.838V10.5557H565.732V11.5515Z" fill="#EBEBEB"/>
    <path d="M631.315 12.0494H630.319V11.5515H629.82V10.5557H631.315V12.0494Z" fill="#EBEBEB"/>
    <path d="M631.315 78.0723H630.319V76.1802H631.315V78.0723ZM631.315 74.1886H630.319V72.2965H631.315V74.1886ZM631.315 70.3049H630.319V68.4128H631.315V70.3049ZM631.315 66.4212H630.319V64.5291H631.315V66.4212ZM631.315 62.5375H630.319V60.6454H631.315V62.5375ZM631.315 58.6538H630.319V56.7617H631.315V58.6538ZM631.315 54.7701H630.319V52.7785H631.315V54.7701ZM631.315 50.8864H630.319V48.9944H631.315V50.8864ZM631.315 47.0027H630.319V45.1106H631.315V47.0027ZM631.315 43.119H630.319V41.227H631.315V43.119ZM631.315 39.2353H630.319V37.3433H631.315V39.2353ZM631.315 35.3516H630.319V33.4596H631.315V35.3516ZM631.315 31.4679H630.319V29.5759H631.315V31.4679ZM631.315 27.5842H630.319V25.6922H631.315V27.5842ZM631.315 23.7005H630.319V21.8085H631.315V23.7005ZM631.315 19.8168H630.319V17.9248H631.315V19.8168ZM631.315 15.9331H630.319V13.9415H631.315V15.9331Z" fill="#EBEBEB"/>
    <path d="M565.234 76.5786H556.562V85.2422H565.234V76.5786Z" fill="#FCF2D5"/>
    <path d="M565.732 85.7401H556.064V76.0807H565.732V85.7401ZM556.961 84.8439H564.735V77.0765H556.961V84.8439Z" fill="#EBEBEB"/>
    <path d="M565.234 41.6253H556.562V50.2889H565.234V41.6253Z" fill="#FCF2D5"/>
    <path d="M565.732 50.7868H556.064V41.1274H565.732V50.7868ZM556.961 49.8906H564.735V42.1232H556.961V49.8906Z" fill="#EBEBEB"/>
    <path d="M565.234 6.672H556.562V15.3356H565.234V6.672Z" fill="#FCF2D5"/>
    <path d="M565.732 15.9331H556.064V6.17409H565.732V15.9331ZM556.961 14.9373H564.735V7.16991H556.961V14.9373Z" fill="#EBEBEB"/>
    <path d="M635.203 76.5786H626.531V85.2422H635.203V76.5786Z" fill="#FCF2D5"/>
    <path d="M635.701 85.7401H626.033V76.0807H635.701V85.7401ZM626.93 84.8439H634.704V77.0765H626.93V84.8439Z" fill="#EBEBEB"/>
    <path d="M635.203 41.6253H626.531V50.2889H635.203V41.6253Z" fill="#FCF2D5"/>
    <path d="M635.701 50.7868H626.033V41.1274H635.701V50.7868ZM626.93 49.8906H634.704V42.1232H626.93V49.8906Z" fill="#EBEBEB"/>
    <path d="M635.203 6.672H626.531V15.3356H635.203V6.672Z" fill="#FCF2D5"/>
    <path d="M635.701 15.9331H626.033V6.17409H635.701V15.9331ZM626.93 14.9373H634.704V7.16991H626.93V14.9373Z" fill="#EBEBEB"/>
    <path d="M600.218 6.672H591.547V15.3356H600.218V6.672Z" fill="#FCF2D5"/>
    <path d="M600.716 15.9331H591.048V6.17409H600.716V15.9331ZM591.945 14.9373H599.72V7.16991H591.945V14.9373Z" fill="#EBEBEB"/>
    <path d="M600.118 76.5786H591.447V85.2422H600.118V76.5786Z" fill="#FCF2D5"/>
    <path d="M600.716 85.7401H591.048V76.0807H600.716V85.7401ZM591.945 84.8439H599.72V77.0765H591.945V84.8439Z" fill="#EBEBEB"/>
    <path d="M614.272 40.032H613.076C609.787 30.2729 607.992 26.1901 602.511 26.1901H601.813V65.7241H606.896V67.0187H584.969V65.7241H590.052V26.1901H589.254C583.772 26.1901 581.779 30.6713 578.689 40.032H577.593L578.091 24.8955H613.574L614.272 40.032Z" fill="#EBEBEB"/>
    <path d="M15.6483 263.992C16.645 264.988 16.645 266.581 15.6483 267.577C15.15 268.075 14.552 268.274 13.9539 268.274C13.2562 268.274 12.6582 268.075 12.1598 267.577L1.09638 256.324C0.996707 256.324 0.897036 256.225 0.897036 256.125L0.797365 256.025C0.697694 255.926 0.697694 255.826 0.697694 255.727C0.598023 255.727 0.598023 255.627 0.598023 255.527C0.598023 255.428 0.598023 255.328 0.498353 255.328C0.498353 255.229 0.398682 255.129 0.398682 255.129C0.398682 255.03 0.398682 254.93 0.398682 254.83C0.398682 254.731 0.398682 254.731 0.398682 254.631V254.432C0.398682 254.332 0.398682 254.233 0.398682 254.133C0.398682 254.034 0.498353 254.034 0.498353 253.934C0.498353 253.835 0.498353 253.735 0.598023 253.635C0.598023 253.635 0.598023 253.635 0.598023 253.536C0.697694 253.436 0.697694 253.237 0.797365 253.137C0.797365 253.137 0.797365 253.038 0.897036 253.038C0.897036 252.938 0.996707 252.839 1.09638 252.739L12.1598 241.486C13.1566 240.59 14.7513 240.59 15.748 241.486C16.7447 242.482 16.7447 244.075 15.748 245.071L6.37894 254.432L15.6483 263.992Z" fill="#EBEBEB"/>
    <path d="M25.7151 265.286L35.3832 242.383C35.8815 241.287 37.0776 240.789 38.2736 241.287C39.37 241.686 39.8684 242.98 39.37 244.075L29.7019 267.079C29.3032 267.876 28.5059 268.373 27.7085 268.373C27.5092 268.373 27.1105 268.373 26.9111 268.174C25.7151 267.676 25.2167 266.382 25.7151 265.286Z" fill="#EBEBEB"/>
    <path d="M58.4072 256.025C58.3075 256.125 58.2078 256.224 58.1081 256.324L47.0447 267.577C46.5463 268.075 45.9483 268.274 45.2506 268.274C44.5529 268.274 43.9549 268.075 43.4565 267.577C42.4598 266.581 42.4598 265.087 43.4565 263.992L52.8256 254.631L43.4565 245.27C42.4598 244.275 42.4598 242.681 43.4565 241.686C44.3536 240.789 46.048 240.789 47.0447 241.686L58.1081 252.938C58.2078 253.038 58.3075 253.137 58.4072 253.237V253.337C58.5068 253.536 58.6065 253.536 58.6065 253.735C58.6065 253.735 58.6065 253.735 58.6065 253.835C58.6065 253.934 58.6065 254.034 58.7062 254.233C58.7062 254.233 58.7062 254.233 58.7062 254.332C58.7062 254.432 58.7062 254.532 58.7062 254.631V254.83V255.03C58.7062 255.129 58.7062 255.229 58.7062 255.328C58.7062 255.328 58.7062 255.328 58.7062 255.428C58.6065 255.627 58.6065 255.727 58.6065 255.826C58.6065 255.826 58.6065 255.826 58.6065 255.926C58.5068 255.727 58.5068 255.826 58.4072 256.025Z" fill="#EBEBEB"/>
    <path d="M0 404.801L79.5374 404.701L158.975 404.602H318.05H477.025L556.562 404.701L636 404.801L556.562 404.9H477.025L318.05 405L158.975 404.9H79.5374L0 404.801Z" fill="#263238"/>
    <path d="M573.008 41.3265H61.0983V350.628H573.008V41.3265Z" fill="#FCF2D5"/>
    <path d="M573.008 350.728L61.0983 351.126H60.6996V350.728L60.5999 41.3265V40.8286H61.0983L573.008 41.0278H573.307V41.3265L573.008 350.728ZM573.008 350.728L572.709 41.4261L573.008 41.7249L61.0983 41.8244L61.5966 41.3265L61.497 350.628L61.0983 350.23L573.008 350.728Z" fill="#C7C7C7"/>
    <path d="M573.008 41.3265H61.0983V91.715H573.008V41.3265Z" fill="#FFC727"/>
    <path d="M92.8933 74.089H82.3282V75.8815H92.8933V74.089Z" fill="#FCF2D5"/>
    <path d="M92.8933 81.956H82.3282V83.7484H92.8933V81.956Z" fill="#FCF2D5"/>
    <path d="M92.8933 78.0723H82.3282V79.8648H92.8933V78.0723Z" fill="#FCF2D5"/>
    <path opacity="0.1" d="M551.678 73.9894H453.004V83.9476H551.678V73.9894Z" fill="black"/>
    <path d="M551.778 73.9894H541.811V83.9476H551.778V73.9894Z" fill="#FCF2D5"/>
    <path d="M549.884 81.6572L548.987 82.3543L547.293 80.0639L546.695 79.2673C546.795 79.2673 546.894 79.1677 547.094 79.0681C547.293 78.8689 547.492 78.6698 547.592 78.4706L548.29 79.3668L549.884 81.6572Z" fill="#FFC727"/>
    <path d="M548.09 76.3794C547.293 75.284 545.698 75.0848 544.602 75.8815C543.506 76.6781 543.306 78.2714 544.104 79.3668C544.901 80.3627 546.197 80.6614 547.293 80.0639C547.393 79.9643 547.492 79.9643 547.592 79.8648C547.791 79.6656 547.991 79.566 548.09 79.3668C548.788 78.4706 548.788 77.2756 548.09 76.3794ZM546.994 79.1677C546.894 79.2673 546.795 79.3668 546.595 79.3668C545.997 79.566 545.3 79.4664 544.901 78.8689C544.403 78.1719 544.502 77.2756 545.2 76.7777C545.898 76.2798 546.795 76.3794 547.293 77.0765C547.592 77.4748 547.692 78.0723 547.492 78.5702C547.393 78.7694 547.193 78.9685 546.994 79.1677Z" fill="#FFC727"/>
    <path d="M455.596 75.8815H455.097V81.956H455.596V75.8815Z" fill="#FCF2D5"/>
    <path d="M179.607 74.089H132.363V83.7485H179.607V74.089Z" stroke="#FCF2D5" stroke-miterlimit="10"/>
    <path d="M237.217 74.089H189.973V83.7485H237.217V74.089Z" stroke="#FCF2D5" stroke-miterlimit="10"/>
    <path opacity="0.1" d="M294.926 74.089H247.682V83.7485H294.926V74.089Z" fill="black"/>
    <path d="M352.536 74.089H305.292V83.7485H352.536V74.089Z" stroke="#FCF2D5" stroke-miterlimit="10"/>
    <path d="M410.245 74.089H363.001V83.7485H410.245V74.089Z" stroke="#FCF2D5" stroke-miterlimit="10"/>
    <path d="M573.008 41.3265H61.0983V49.2931H573.008V41.3265Z" fill="#37474F"/>
    <path d="M67.3775 45.3098C67.3775 46.4052 66.4805 47.3014 65.3841 47.3014C64.2877 47.3014 63.3907 46.4052 63.3907 45.3098C63.3907 44.2144 64.2877 43.3182 65.3841 43.3182C66.5802 43.4178 67.3775 44.2144 67.3775 45.3098Z" fill="#C7C7C7"/>
    <path d="M75.5505 45.3098C75.5505 46.4052 74.6535 47.3014 73.5571 47.3014C72.4607 47.3014 71.5637 46.4052 71.5637 45.3098C71.5637 44.2144 72.4607 43.3182 73.5571 43.3182C74.6535 43.4178 75.5505 44.2144 75.5505 45.3098Z" fill="#FCF2D5"/>
    <path d="M83.6239 45.3098C83.6239 46.4052 82.7269 47.3014 81.6305 47.3014C80.5341 47.3014 79.6371 46.4052 79.6371 45.3098C79.6371 44.2144 80.5341 43.3182 81.6305 43.3182C82.7269 43.4178 83.6239 44.2144 83.6239 45.3098Z" fill="#FFC727"/>
    <path d="M572.908 91.715H564.137V350.628H572.908V91.715Z" fill="#DBDBDB"/>
    <path d="M568.523 181.538C567.227 181.538 566.23 180.642 566.23 179.546V95.2004C566.23 94.105 567.227 93.2088 568.523 93.2088C569.819 93.2088 570.815 94.105 570.815 95.2004V179.546C570.815 180.642 569.819 181.538 568.523 181.538Z" fill="#A6A6A6"/>
    <path d="M82.5275 104.262V142.203H120.502V104.262H82.5275ZM85.3183 139.315V107.051H117.612V139.315H85.3183Z" fill="#EBEBEB"/>
    <path d="M268.314 110.636H249.476V129.457H268.314V110.636Z" fill="#FFC727"/>
    <path d="M432.572 110.636H413.734V129.457H432.572V110.636Z" fill="#FFC727"/>
    <path d="M99.8702 206.732H81.0324V225.553H99.8702V206.732Z" fill="#FFC727"/>
    <path d="M522.774 303.625V341.566H560.749V303.625H522.774ZM525.664 338.678V306.414H557.958V338.678H525.664Z" fill="#EBEBEB"/>
    <path d="M156.284 216.093H90.4015V228.441H156.284V216.093Z" fill="#455A64"/>
    <path d="M271.504 234.516H90.4015V239.096H271.504V234.516Z" fill="#DBDBDB"/>
    <path d="M271.504 244.673H90.4015V249.254H271.504V244.673Z" fill="#DBDBDB"/>
    <path d="M271.504 254.731H90.4015V259.312H271.504V254.731Z" fill="#DBDBDB"/>
    <path d="M271.504 264.888H90.4015V269.469H271.504V264.888Z" fill="#DBDBDB"/>
    <path d="M271.504 275.045H90.4015V279.626H271.504V275.045Z" fill="#DBDBDB"/>
    <path d="M324.728 119.996H258.845V132.344H324.728V119.996Z" fill="#455A64"/>
    <path d="M394.198 140.809H258.845V145.39H394.198V140.809Z" fill="#DBDBDB"/>
    <path d="M394.198 150.966H258.845V155.547H394.198V150.966Z" fill="#DBDBDB"/>
    <path d="M394.198 161.024H258.845V165.605H394.198V161.024Z" fill="#DBDBDB"/>
    <path d="M394.198 171.181H258.845V175.762H394.198V171.181Z" fill="#DBDBDB"/>
    <path d="M394.198 184.625H258.845V189.206H394.198V184.625Z" fill="#DBDBDB"/>
    <path d="M394.198 194.782H258.845V199.363H394.198V194.782Z" fill="#DBDBDB"/>
    <path d="M543.605 119.996H423.103V132.544H543.605V119.996Z" fill="#455A64"/>
    <path d="M543.306 132.643H423.402V329.019H543.306V132.643Z" fill="#FCF2D5"/>
    <path d="M543.605 329.417H423.103V132.344H543.605V329.417ZM423.801 328.72H543.007V132.942H423.801V328.72Z" fill="#DBDBDB"/>
    <path d="M423.701 329.218L423.103 328.919L543.007 132.544L543.605 132.743L423.701 329.218Z" fill="#DBDBDB"/>
    <path d="M543.007 329.218L423.103 132.743L423.701 132.544L543.605 328.919L543.007 329.218Z" fill="#DBDBDB"/>
    <path d="M180.604 120.295H36.9779V199.164H180.604V120.295Z" fill="#FCF2D5"/>
    <path d="M36.7786 199.363V199.164V120.096H36.9779H180.803V199.363H180.604H36.7786ZM37.1772 120.494V198.965H180.305V120.494H37.1772Z" fill="#DBDBDB"/>
    <path d="M37.1772 120.494C49.2374 126.867 61.2976 133.34 73.2581 139.714L109.14 159.232L144.822 178.949L162.663 188.907L180.404 198.965L162.364 189.405L144.323 179.746L108.442 160.227L72.7598 140.411C60.7993 133.838 48.9384 127.166 37.1772 120.494Z" fill="#DBDBDB"/>
    <path d="M180.404 120.494C168.643 127.266 156.782 133.838 144.921 140.51L109.239 160.227L73.3578 179.746L55.3173 189.405L37.2769 198.965L55.0183 188.907L72.8594 178.949L108.542 159.232L144.423 139.714C156.284 133.241 168.244 126.768 180.404 120.494Z" fill="#DBDBDB"/>
    <path d="M107.266 311.728V367.195H400.298V311.728H107.266Z" fill="#FCF2D5"/>
    <path d="M400.777 311.592V367.358H106.748V311.592H400.777ZM399.78 367.059V311.891H107.744V367.059H399.78Z" fill="#FFC727"/>
    <path d="M400.478 367.059L400.179 367.358L107.047 311.891L107.445 311.592L400.478 367.059Z" fill="#FFC727"/>
    <path d="M400.478 311.891L107.445 367.358L107.047 367.059L400.179 311.592L400.478 311.891Z" fill="#FFC727"/>
    <path d="M52.3272 323.044C59.2045 308.903 71.165 301.733 84.7202 305.717C98.2755 309.7 100.369 328.621 90.2021 333.301C80.1354 338.081 69.969 324.139 64.6864 321.252C59.4038 318.463 52.3272 323.044 52.3272 323.044Z" fill="#FFC727"/>
    <path d="M45.6493 360.586C45.6493 358.894 45.7489 357.201 45.8486 355.508C45.9483 352.122 46.048 348.736 46.2473 345.35C46.4466 339.176 47.1443 333.002 49.7358 327.326C52.0282 322.148 55.8157 317.667 60.5999 314.779C62.394 313.683 64.2877 312.887 66.2811 312.289C67.9755 310.397 70.567 309.202 72.9591 308.605C76.0489 307.808 79.338 308.007 82.5275 308.405C82.6272 308.405 82.6272 308.605 82.5275 308.605C79.5374 308.206 76.4476 308.405 73.5571 309.202C72.2614 309.6 71.0653 309.999 69.969 310.596C69.2713 310.995 68.5736 311.493 67.8759 311.891C70.567 311.393 73.3578 311.293 76.1486 311.99C77.1453 312.19 78.0423 312.588 79.039 312.986C79.7367 312.787 80.5341 312.787 81.3314 312.787C82.3282 312.787 83.3249 312.986 84.2219 313.185C86.2153 313.683 88.0094 314.58 89.8035 315.575C89.9031 315.675 89.8035 315.775 89.7038 315.775C88.0094 314.878 86.2153 314.181 84.2219 313.683C83.3249 313.484 82.3282 313.385 81.4311 313.285C80.9328 313.285 80.4344 313.285 79.8364 313.285C83.6239 315.077 86.8134 318.164 88.6074 322.048C88.6074 322.148 88.5078 322.247 88.4081 322.148C86.4147 317.567 82.0291 314.48 77.2449 313.185C76.9459 313.086 76.6469 313.086 76.3479 312.986C76.4476 313.385 76.4476 313.882 76.4476 314.38C76.5472 315.077 76.6469 315.775 76.7466 316.472C77.0456 317.866 77.4443 319.26 77.843 320.554C78.3413 321.949 78.8397 323.243 79.4377 324.538C80.1354 325.832 80.7334 327.226 81.7301 328.421C81.8298 328.521 81.6305 328.621 81.6305 328.521C80.8331 327.226 79.8364 326.031 79.1387 324.737C78.441 323.442 77.843 322.148 77.3446 320.754C76.8463 319.359 76.4476 317.965 76.1486 316.571C76.0489 315.775 75.8495 315.077 75.7499 314.281C75.6502 313.882 75.5505 313.285 75.6502 312.887C74.0555 312.588 72.4607 312.588 70.866 312.787C71.464 316.173 72.1617 319.658 73.9558 322.546C74.0555 322.646 73.8561 322.745 73.7565 322.646C72.9591 321.052 72.062 319.559 71.464 317.866C70.866 316.272 70.4673 314.58 70.268 312.887C67.4772 313.285 64.7861 314.181 62.2943 315.575C57.6098 318.164 54.0216 322.347 51.7292 327.127C49.1377 332.305 48.141 337.981 47.842 343.657C47.3437 350.827 47.3437 358.097 46.5463 365.267C46.5463 365.765 45.7489 365.864 45.6493 365.366C45.4499 363.773 45.6493 362.18 45.6493 360.586Z" fill="#263238"/>
    <path d="M61.4969 313.584C61.8956 312.986 62.4937 312.588 63.0917 312.19C63.6897 311.692 64.1881 311.293 64.7861 310.895C65.9821 310.098 67.2779 309.501 68.6733 309.103C68.7729 309.103 68.8726 309.302 68.6733 309.302C67.2779 309.6 65.9821 310.297 64.7861 311.194C64.1881 311.592 63.6897 312.09 63.0917 312.488C62.5933 312.887 62.095 313.484 61.4969 313.783C61.5966 313.783 61.4969 313.683 61.4969 313.584Z" fill="#263238"/>
    <path d="M83.4245 318.662C84.5209 319.957 85.6173 321.351 86.614 322.845C87.511 324.339 88.3084 325.832 88.9064 327.525C88.9064 327.525 88.8068 327.625 88.8068 327.525C87.1124 324.538 85.5176 321.451 83.2252 318.862C83.2252 318.762 83.3249 318.662 83.4245 318.662Z" fill="#263238"/>
    <path d="M68.6733 317.268C68.7729 318.164 69.0719 318.961 69.4706 319.857C69.8693 320.654 70.268 321.351 70.7663 322.148C70.7663 322.148 70.7663 322.247 70.6667 322.247C69.4706 320.953 68.7729 319.16 68.4739 317.467C68.4739 317.268 68.6733 317.169 68.6733 317.268Z" fill="#263238"/>
    <path d="M46.646 323.343C46.646 323.343 36.8782 311.094 18.1401 315.476C0.299 319.658 -7.97369 352.321 10.0667 356.205C28.1072 360.089 24.9177 329.915 31.496 324.737C36.2802 320.953 43.2572 321.749 46.646 323.343Z" fill="#FFC727"/>
    <path d="M3.6878 333.301C4.88385 332.206 6.17957 331.21 7.57497 330.314C8.87069 329.517 10.2661 328.72 11.6615 328.222C12.3592 327.127 13.1565 326.031 14.1532 325.036C15.8476 323.243 17.7414 321.749 19.8345 320.554C19.6351 320.554 19.4358 320.554 19.2365 320.554C18.2398 320.554 17.243 320.554 16.2463 320.554C14.2529 320.654 12.2595 321.152 10.4654 321.949C10.3658 321.949 10.2661 321.849 10.3657 321.749C12.2595 320.953 14.1532 320.355 16.1467 320.057C17.1434 319.857 18.1401 319.758 19.0371 319.758C19.5355 319.758 20.1335 319.758 20.6319 319.857C20.7315 319.857 20.8312 319.857 20.9309 319.857C22.6253 318.961 24.4193 318.364 26.3131 317.866C26.1138 317.866 26.0141 317.766 25.8147 317.766C24.9177 317.567 23.921 317.467 23.024 317.268C21.1302 317.069 19.2365 317.069 17.4424 317.368C17.3427 317.368 17.3427 317.169 17.4424 317.169C19.3361 316.97 21.2299 316.87 23.1236 316.97C24.7184 317.069 26.3131 317.169 27.8082 317.567C28.9045 317.368 30.1006 317.268 31.197 317.169C37.7752 316.87 44.8519 319.36 48.9384 324.737C53.0249 330.114 53.7226 337.284 54.4203 343.757C55.417 352.819 55.8157 361.981 55.118 371.043C55.118 371.54 54.3206 371.441 54.3206 370.943C54.1213 363.275 53.8223 355.508 53.0249 347.84C52.7259 344.255 52.3272 340.67 51.7292 337.185C51.2308 334.197 50.5331 331.21 49.1377 328.421C47.7423 325.534 45.5496 323.243 42.7588 321.65C40.0677 320.057 36.8782 319.16 33.7884 318.862C30.898 318.662 28.1072 318.862 25.4161 319.658C25.5157 320.156 25.5157 320.754 25.4161 321.351C25.3164 322.048 25.2167 322.745 25.0174 323.442C24.818 324.04 24.519 324.637 24.22 325.235C23.921 325.832 23.4226 326.43 23.024 327.027C22.9243 327.127 22.8246 327.027 22.9243 326.928C23.7217 325.932 24.1203 324.538 24.4193 323.243C24.519 322.646 24.6187 321.949 24.6187 321.351C24.6187 320.853 24.6187 320.355 24.6187 319.857C21.6286 320.754 18.8378 322.247 16.4457 324.139C15.9473 324.538 15.5486 324.936 15.15 325.334C15.748 325.832 16.346 326.629 16.7447 327.326C17.3427 328.222 17.9407 329.218 18.4391 330.314C19.3361 332.405 19.8345 334.596 20.1335 336.786C20.1335 336.886 19.9342 336.886 19.9342 336.786C19.6351 334.596 18.8378 332.604 17.8411 330.612C17.3427 329.716 16.7447 328.72 16.1467 327.824C15.8477 327.326 15.5486 326.928 15.15 326.529C14.9506 326.33 14.7513 326.032 14.5519 325.832C12.3592 328.023 10.5651 330.513 9.26937 333.301C10.1664 334.197 10.8641 335.392 11.4621 336.488C12.1598 337.683 12.7579 338.977 13.2562 340.272C14.2529 342.761 14.8509 345.35 15.449 347.94C15.449 348.039 15.2496 348.039 15.2496 347.94C14.7513 345.35 13.7546 342.861 12.5585 340.371C11.9605 339.176 11.3625 338.081 10.7644 336.886C10.1664 335.791 9.46871 334.795 8.97036 333.6C7.97365 336.587 7.17628 339.575 7.07661 342.562C7.07661 342.662 6.87727 342.662 6.87727 342.562C7.27595 337.882 8.67135 333.201 11.0634 329.218C9.8674 329.716 8.77102 330.214 7.67464 330.811C6.27924 331.608 4.98352 332.504 3.78747 333.5C3.6878 333.6 3.58813 333.401 3.6878 333.301Z" fill="#263238"/>
    <path d="M17.4424 333.998C18.0404 335.89 18.7381 337.683 19.2365 339.475C19.7348 341.268 20.0338 343.16 20.0338 344.952C20.0338 345.052 19.9342 345.052 19.9342 344.952C19.3361 341.268 18.5388 337.483 17.243 333.998C17.1434 333.998 17.3427 333.898 17.4424 333.998Z" fill="#263238"/>
    <path d="M5.48187 329.417C6.17957 328.72 7.07661 328.123 7.97364 327.625C8.87068 327.127 9.86739 326.928 10.8641 326.629C10.9638 326.629 10.9638 326.828 10.8641 326.828C9.86739 327.027 8.97035 327.525 8.07332 327.924C7.27595 328.421 6.37891 328.919 5.48187 329.417C5.58154 329.616 5.48187 329.517 5.48187 329.417Z" fill="#263238"/>
    <path d="M37.3766 307.111C37.3766 307.111 35.5825 285.203 19.2365 278.033C5.58154 272.058 -2.19278 287.394 7.47529 296.754C15.2496 304.323 27.8082 300.937 37.3766 307.111Z" fill="#FFC727"/>
    <path d="M10.4654 282.315C12.9572 283.41 15.3493 284.406 17.7414 285.701C19.7348 286.796 21.5289 288.091 23.4226 289.485C23.1236 288.887 22.9243 288.389 22.6253 287.792C22.2266 286.896 21.7282 286.099 21.2299 285.302C20.2332 283.61 19.0371 282.116 17.6417 280.722C17.5421 280.622 17.6417 280.523 17.7414 280.622C19.1368 282.016 20.4325 283.41 21.5289 285.004C22.1269 285.8 22.6253 286.597 23.1236 287.493C23.5223 288.29 24.0207 289.186 24.22 289.983C24.3197 289.983 24.3197 290.082 24.4194 290.082C27.3098 292.373 29.9013 294.962 32.1937 297.75C32.1937 297.551 32.094 297.352 32.094 297.153C31.795 296.057 31.496 295.062 31.0973 293.966C30.3996 291.775 29.4029 289.485 28.1072 287.593C28.0075 287.493 28.2068 287.394 28.3065 287.493C29.5026 289.485 30.7983 291.576 31.6953 293.767C32.1937 294.862 32.4927 295.858 32.7917 297.053C32.9911 297.75 33.2901 298.547 33.2901 299.244C33.9878 300.14 34.6855 301.036 35.3832 302.032C42.3601 311.99 45.9483 324.04 46.7456 336.089C47.0446 339.674 47.0446 343.259 46.945 346.844C46.8453 350.429 46.646 354.114 45.9483 357.699C45.9483 357.898 45.5496 357.898 45.5496 357.599C45.6493 354.412 45.9483 351.325 46.0479 348.139C46.1476 344.952 45.9483 341.765 45.7489 338.579C45.2506 332.305 44.0545 325.932 42.1608 319.957C40.267 313.783 37.4762 307.808 33.8881 302.431C33.1904 302.331 32.4927 302.132 31.795 301.933C30.9976 301.733 30.2003 301.534 29.4029 301.335C27.8082 300.937 26.3131 300.439 24.818 299.642C24.7184 299.543 24.818 299.443 24.9177 299.443C26.3131 300.24 27.9078 300.738 29.5026 301.036C30.7983 301.335 32.094 301.435 33.3897 301.733C32.1937 300.041 30.898 298.348 29.6022 296.754C26.5124 297.053 23.323 296.754 20.3328 296.057C18.7381 295.659 17.1434 295.161 15.5486 294.564C13.9539 293.966 12.3592 293.169 10.7644 292.472C10.6648 292.373 10.7644 292.273 10.8641 292.273C13.6549 293.966 17.1434 294.862 20.2332 295.36C23.1236 295.858 26.1138 296.057 29.0042 296.057C27.8082 294.763 26.6121 293.468 25.4161 292.174C21.1302 288.091 16.047 284.307 10.3658 282.415C10.3658 282.415 10.3658 282.215 10.4654 282.315Z" fill="#263238"/>
    <path d="M23.7216 282.315C24.4193 283.211 25.117 284.207 25.7151 285.203C26.3131 286.298 26.8114 287.394 27.1105 288.589C27.1105 288.589 27.1105 288.688 27.0108 288.589C26.5124 287.493 26.0141 286.398 25.4161 285.302C24.9177 284.207 24.22 283.211 23.4226 282.315C23.5223 282.415 23.7216 282.315 23.7216 282.315Z" fill="#263238"/>
    <path d="M8.57166 289.684C9.66804 290.282 10.7644 290.68 11.9605 291.078C13.0569 291.477 14.2529 291.775 15.3493 291.974C15.449 291.974 15.3493 292.074 15.3493 292.074C14.1532 291.974 12.9572 291.676 11.8608 291.277C10.7644 290.879 9.66804 290.282 8.57166 289.784C8.37232 289.784 8.47199 289.584 8.57166 289.684Z" fill="#263238"/>
    <path d="M50.0348 303.128C50.1345 304.123 52.5266 295.161 66.2812 287.294C78.8397 280.124 93.7903 261.403 81.4311 249.652C71.5637 240.092 45.4499 260.805 50.0348 303.128Z" fill="#FFC727"/>
    <path d="M40.566 354.213C40.7654 344.952 41.4631 335.691 42.7588 326.529C43.9549 318.065 45.7489 309.8 48.5397 301.733C49.5364 298.846 50.7325 295.958 52.0282 293.169C51.9285 292.074 52.0282 290.879 52.1279 289.883C52.2275 288.489 52.3272 287.095 52.4269 285.701C52.5266 284.307 52.7259 282.912 52.8256 281.518C53.0249 280.124 53.3239 278.73 53.3239 277.336C53.3239 277.236 53.5233 277.236 53.5233 277.336C53.2243 278.73 53.1246 280.323 53.0249 281.817C52.9252 283.211 52.8256 284.506 52.8256 285.9C52.8256 287.294 52.8256 288.589 52.8256 289.983C52.8256 290.481 52.8256 290.979 52.8256 291.477C54.1213 288.688 55.5167 285.999 57.0117 283.41C56.1147 277.734 57.3108 271.759 58.5068 266.183C58.5068 266.083 58.7062 266.083 58.7062 266.282C58.1081 269.17 57.9088 272.158 57.8091 275.145C57.7094 277.535 57.9088 279.825 57.9088 282.215C58.2078 281.618 58.6065 281.12 58.9055 280.522C60.6996 277.635 62.5933 274.747 64.5867 271.958C64.3874 270.664 64.4871 269.17 64.6864 267.876C64.8857 266.382 65.2844 264.888 65.6831 263.394C66.0818 261.901 66.5802 260.507 67.1782 259.112C67.7762 257.619 68.5736 256.324 69.1716 254.83C69.1716 254.731 69.3709 254.83 69.3709 254.93C68.5736 256.224 68.0752 257.818 67.6765 259.212C67.1782 260.606 66.8792 262.1 66.5802 263.494C66.2811 264.988 66.0818 266.382 65.8825 267.876C65.7828 268.871 65.6831 269.867 65.4838 270.863C68.4739 266.88 71.6634 263.096 75.1519 259.61C75.2515 259.511 75.3512 259.61 75.2515 259.71C69.969 265.685 65.2844 271.958 61.1979 278.73C60.9986 279.029 60.8989 279.228 60.7992 279.527C61.5966 279.029 62.394 278.63 63.1913 278.232C64.4871 277.535 65.8825 276.738 67.1782 276.041C68.4739 275.344 69.7696 274.647 71.0653 273.95C71.763 273.552 72.3611 273.153 73.0588 272.855C73.8561 272.456 74.6535 272.058 75.3512 271.56C75.4509 271.461 75.5505 271.66 75.4509 271.66C74.1551 272.357 72.9591 273.452 71.6634 274.249C70.3677 275.045 69.0719 275.842 67.6765 276.639C65.1848 278.033 62.5933 279.029 60.1015 280.423C58.4071 283.311 56.9121 286.398 55.417 289.385C56.9121 288.489 58.4071 287.593 59.9022 286.697C60.8989 286.099 61.8956 285.601 62.8923 285.103C63.889 284.605 64.8857 284.107 65.6831 283.41C65.7828 283.311 65.8825 283.41 65.7828 283.51C64.1881 285.004 62.394 286.099 60.5002 287.194C58.7062 288.19 56.9121 289.186 55.118 290.082C53.6229 293.269 52.3272 296.555 51.1312 299.941C45.3503 316.372 43.1575 333.799 42.1608 351.126C41.8618 356.304 41.6624 361.483 41.6624 366.661C41.5628 371.839 41.8618 377.017 41.8618 382.096C41.8618 382.295 41.5628 382.295 41.5628 382.096C40.9647 377.515 40.8651 372.835 40.6657 368.254C40.4664 363.574 40.4664 358.894 40.566 354.213Z" fill="#263238"/>
    <path d="M65.5835 279.825C68.0752 278.83 70.567 277.336 72.9591 276.041C75.3512 274.647 77.6436 273.253 79.9361 271.66C79.9361 271.66 80.0357 271.66 79.9361 271.759C77.843 273.452 75.5505 275.045 73.2581 276.44C70.866 277.834 68.2746 278.929 65.6831 280.025C65.5835 280.025 65.4838 279.925 65.5835 279.825Z" fill="#263238"/>
    <path d="M61.5966 261.303C61.796 260.507 62.095 259.71 62.2943 258.913C62.2943 258.913 62.1946 258.913 62.2943 258.814C62.4937 258.415 62.693 257.917 62.7927 257.519C62.7927 257.419 62.7927 257.419 62.8923 257.32C62.8923 257.22 62.992 257.121 62.992 257.021C62.992 257.22 62.8923 257.32 62.8923 257.519C62.8923 257.619 62.8923 257.718 62.7927 257.818C61.8956 260.905 61.1979 263.992 60.6996 267.178C60.6996 267.278 60.5002 267.278 60.5002 267.178C60.7993 265.187 61.0983 263.195 61.5966 261.303Z" fill="#263238"/>
    <path d="M26.0141 357.499L27.0108 369.15L30.0009 404.801H62.2943L65.2844 369.15L66.2811 357.499H26.0141Z" fill="#455A64"/>
    <path d="M26.0141 357.499L27.0108 369.15H65.2844L66.2811 357.499H26.0141Z" fill="#263238"/>
    <path d="M22.7858 364.09H69.4318V352.937H22.7858V364.09Z" fill="#455A64"/>
    <path d="M292.887 279.937H389.667V218.296H292.887V279.937Z" fill="#FFC727"/>
    <path d="M287.252 283.809V285.302H288.747" stroke="#263238" stroke-width="0.5" stroke-miterlimit="10"/>
    <path d="M291.737 285.302H392.305" stroke="#263238" stroke-width="0.5" stroke-miterlimit="10" stroke-dasharray="3.01 3.01"/>
    <path d="M393.8 285.302H395.295V283.809" stroke="#263238" stroke-width="0.5" stroke-miterlimit="10"/>
    <path d="M395.295 280.821V215.894" stroke="#263238" stroke-width="0.5" stroke-miterlimit="10" stroke-dasharray="3.03 3.03"/>
    <path d="M395.295 214.4V212.906H393.8" stroke="#263238" stroke-width="0.5" stroke-miterlimit="10"/>
    <path d="M390.81 212.906H290.242" stroke="#263238" stroke-width="0.5" stroke-miterlimit="10" stroke-dasharray="3.01 3.01"/>
    <path d="M288.747 212.906H287.252V214.4" stroke="#263238" stroke-width="0.5" stroke-miterlimit="10"/>
    <path d="M287.252 217.388V282.315" stroke="#263238" stroke-width="0.5" stroke-miterlimit="10" stroke-dasharray="3.03 3.03"/>
    <g opacity="0.1">
    <path d="M324.827 266.681H389.713L357.22 239.793L324.827 266.681Z" fill="black"/>
    </g>
    <path d="M292.933 266.681H350.443L321.638 249.254L292.933 266.681Z" fill="#FFC727"/>
    <g opacity="0.2">
    <path d="M292.933 266.681H350.443L321.638 249.254L292.933 266.681Z" fill="black"/>
    </g>
    <path d="M389.713 266.681H292.933V279.925H389.713V266.681Z" fill="#FFC727"/>
    <g opacity="0.2">
    <path d="M389.713 266.681H292.933V279.925H389.713V266.681Z" fill="black"/>
    </g>
    <path opacity="0.1" d="M310.176 244.075C315.13 244.075 319.146 240.063 319.146 235.113C319.146 230.163 315.13 226.151 310.176 226.151C305.222 226.151 301.206 230.163 301.206 235.113C301.206 240.063 305.222 244.075 310.176 244.075Z" fill="black"/>
    <path d="M290.441 209.72H284.162V215.993H290.441V209.72Z" fill="#263238"/>
    <path d="M290.441 282.215H284.162V288.489H290.441V282.215Z" fill="#263238"/>
    <path d="M289.544 246.864H285.059V251.345H289.544V246.864Z" fill="#263238"/>
    <path d="M343.566 210.616H339.08V215.097H343.566V210.616Z" fill="#263238"/>
    <path d="M343.566 283.112H339.08V287.593H343.566V283.112Z" fill="#263238"/>
    <path d="M397.587 246.864H393.102V251.345H397.587V246.864Z" fill="#263238"/>
    <path d="M398.484 209.72H392.205V215.993H398.484V209.72Z" fill="#263238"/>
    <path d="M398.484 282.215H392.205V288.489H398.484V282.215Z" fill="#263238"/>
    <path d="M407.554 308.605L412.339 319.957L407.554 321.849L402.87 310.397L395.095 316.472V284.506L417.521 307.111L407.554 308.605Z" fill="#263238"/>
    <path d="M395.394 280.224C394.996 279.527 394.896 278.83 394.896 278.133C394.896 277.435 394.996 276.738 395.394 276.041C395.793 276.738 395.893 277.435 395.893 278.133C395.893 278.83 395.793 279.527 395.394 280.224Z" fill="#263238"/>
    <path d="M391.707 281.717C390.909 281.518 390.411 281.02 389.813 280.523C389.315 280.025 388.916 279.427 388.617 278.63C389.414 278.83 389.913 279.328 390.511 279.825C391.009 280.423 391.507 280.921 391.707 281.717Z" fill="#263238"/>
    <path d="M390.212 285.402C389.514 285.8 388.816 285.9 388.118 285.9C387.421 285.9 386.723 285.8 386.025 285.402C386.723 285.004 387.421 284.904 388.118 284.904C388.816 284.904 389.514 285.004 390.212 285.402Z" fill="#263238"/>
    <path d="M391.707 288.987C391.507 289.784 391.009 290.282 390.511 290.879C390.012 291.377 389.414 291.775 388.617 292.074C388.816 291.277 389.315 290.779 389.813 290.182C390.411 289.684 390.909 289.286 391.707 288.987Z" fill="#263238"/>
    <path d="M400.577 285.402C401.275 285.004 401.973 284.904 402.67 284.904C403.368 284.904 404.066 285.004 404.764 285.402C404.066 285.8 403.368 285.9 402.67 285.9C401.973 285.9 401.275 285.8 400.577 285.402Z" fill="#263238"/>
    <path d="M398.983 281.717C399.182 280.921 399.68 280.423 400.179 279.825C400.677 279.328 401.275 278.929 402.072 278.63C401.873 279.427 401.375 279.925 400.876 280.523C400.378 281.02 399.78 281.518 398.983 281.717Z" fill="#263238"/>
    <path d="M582.277 245.868H522.176V258.316H582.277V245.868Z" fill="#FFC727"/>
    <path d="M538.322 258.216L536.628 274.149L515.797 405H509.916L526.262 274.149L527.658 258.216H538.322Z" fill="#FFC727"/>
    <path d="M594.537 405H588.557L567.825 274.149L566.131 258.216H576.795L578.091 274.149L594.537 405Z" fill="#FFC727"/>
    <path d="M584.47 363.673H518.189V367.358H584.47V363.673Z" fill="#FFC727"/>
    <path opacity="0.1" d="M526.262 273.552H536.628L538.322 258.216H527.658L526.262 273.552Z" fill="black"/>
    <path opacity="0.1" d="M578.091 273.552H567.825L566.131 258.216H576.795L578.091 273.552Z" fill="black"/>
    <path d="M458.586 267.079C459.283 265.087 494.467 218.583 496.859 217.686C497.158 217.587 512.906 228.74 512.906 228.74C513.604 229.636 543.505 223.263 543.505 223.263L543.804 259.312L489.284 258.117C489.284 258.117 481.909 262.399 475.231 265.984C471.045 268.174 467.456 269.967 466.36 270.266C463.569 271.062 457.888 269.071 458.586 267.079Z" fill="#F7A9A0"/>
    <path d="M466.26 270.365C467.357 270.066 470.945 268.274 475.131 266.083C481.909 262.598 489.185 258.216 489.185 258.216L501.345 258.515L520.382 227.943C516.196 228.64 513.106 229.138 512.906 228.839C512.906 228.839 497.158 217.686 496.859 217.786C494.467 218.682 459.283 265.187 458.586 267.179C457.888 269.071 463.569 271.062 466.26 270.365Z" fill="#FCF2D5"/>
    <path d="M458.287 267.179C458.984 265.187 494.368 218.682 496.859 217.786C497.756 217.388 505.531 222.167 512.906 228.839L490.082 258.714C490.082 258.714 469.051 269.867 466.161 270.564C463.37 271.261 457.589 269.17 458.287 267.179Z" fill="#A6A6A6"/>
    <path d="M460.579 267.876C466.659 260.208 490.68 228.839 496.162 220.773C496.162 220.674 496.162 220.674 496.162 220.773C489.882 228.242 466.26 259.809 460.579 267.776C460.38 267.975 460.48 268.075 460.579 267.876Z" fill="#263238"/>
    <path d="M470.048 268.871C471.543 267.079 472.041 264.589 471.643 262.797C471.344 261.004 470.447 259.112 468.852 257.917L468.752 258.017C471.543 260.706 472.141 265.486 470.048 268.871C470.048 268.971 469.948 268.871 470.048 268.871Z" fill="#263238"/>
    <path d="M487.391 260.606C489.783 257.519 491.477 253.038 490.381 249.154C490.381 248.955 490.082 249.055 490.082 249.154C489.384 253.038 488.387 256.623 486.992 260.307C486.892 260.606 487.191 260.805 487.391 260.606Z" fill="#263238"/>
    <path d="M484.6 262.299C486.992 259.212 488.686 254.731 487.59 250.847C487.59 250.648 487.291 250.747 487.291 250.847C486.593 254.731 485.597 258.316 484.201 262C484.102 262.299 484.401 262.498 484.6 262.299Z" fill="#263238"/>
    <path d="M481.809 263.992C484.201 260.905 485.896 256.424 484.799 252.54C484.799 252.341 484.5 252.44 484.5 252.54C483.803 256.424 482.806 260.009 481.41 263.693C481.311 263.992 481.709 264.191 481.809 263.992Z" fill="#263238"/>
    <path d="M479.018 265.685C481.41 262.598 483.105 258.117 482.008 254.233C482.008 254.034 481.709 254.133 481.709 254.233C481.012 258.117 480.015 261.701 478.62 265.386C478.52 265.685 478.919 265.884 479.018 265.685Z" fill="#263238"/>
    <path d="M502.042 228.441C504.733 224.956 499.251 220.773 496.56 224.358C493.969 227.844 499.451 231.926 502.042 228.441Z" fill="#263238"/>
    <path d="M493.172 270.266C495.663 269.668 495.962 266.681 495.265 264.689C494.268 261.403 491.976 258.017 489.484 255.826C489.384 255.727 489.384 255.826 489.284 255.826C488.985 255.727 488.587 255.826 488.587 256.225C488.387 259.61 487.889 263.195 488.786 266.581C489.284 268.473 490.779 270.863 493.172 270.266ZM489.384 261.403C489.384 259.71 489.583 258.117 489.484 256.424C490.58 258.117 491.776 259.809 492.773 261.702C493.271 262.598 493.67 263.494 493.969 264.39C494.467 265.884 494.766 270.863 491.178 268.573C489.185 267.378 489.384 263.394 489.384 261.403Z" fill="#263238"/>
    <path d="M494.168 247.163C491.676 249.552 490.281 252.938 488.686 255.926C488.487 256.224 488.786 256.523 489.085 256.623C489.085 256.722 489.085 256.722 489.185 256.722C492.474 256.125 496.261 254.332 498.753 252.142C500.348 250.747 501.644 248.059 499.75 246.266C498.155 244.573 495.663 245.768 494.168 247.163ZM497.358 246.665C501.644 246.565 498.753 250.747 497.557 251.743C496.76 252.341 495.962 252.938 495.065 253.436C493.271 254.532 491.378 255.328 489.484 256.224C490.381 254.83 491.078 253.337 491.976 251.843C493.072 250.25 495.065 246.665 497.358 246.665Z" fill="#263238"/>
    <path d="M545.1 212.309H569.52C569.52 212.309 595.135 200.06 615.667 204.94C639.289 210.616 642.279 240.291 624.638 250.747C602.212 263.992 502.74 261.502 502.74 261.502L524.269 225.055C524.269 225.055 557.36 218.085 587.361 219.08L545 224.856V212.309H545.1Z" fill="#37474F"/>
    <path d="M522.873 227.346C522.873 227.346 522.873 227.246 522.873 227.147C522.873 227.047 522.873 227.047 522.873 226.947C522.873 226.848 522.973 226.748 522.973 226.549C523.073 226.35 523.173 226.051 523.272 225.852C523.372 225.653 523.472 225.354 523.571 225.155C523.671 224.956 523.87 224.757 523.97 224.557C523.97 224.557 523.97 224.557 524.07 224.557C524.07 224.557 524.07 224.557 524.169 224.557C524.169 224.557 524.169 224.557 524.269 224.557C527.957 223.86 552.675 220.375 556.363 219.877C560.051 219.479 563.838 219.08 567.526 218.782C574.902 218.184 582.377 217.885 589.852 217.985C590.55 217.985 591.248 217.985 591.945 218.085C592.045 218.085 592.244 217.985 592.444 217.985C592.843 217.885 593.141 217.786 593.54 217.786C594.238 217.686 594.936 217.587 595.534 217.487C596.929 217.288 598.324 217.089 599.72 216.89C599.819 216.89 599.819 216.989 599.72 216.989C598.324 217.288 596.929 217.686 595.534 217.985C595.135 218.085 594.736 218.184 594.338 218.284C597.029 218.383 599.819 218.682 602.511 218.881C602.61 218.881 602.61 218.981 602.511 218.981C598.823 218.782 595.035 218.782 591.347 218.782C587.66 218.881 583.972 218.881 580.284 219.18C572.809 219.578 565.433 220.275 557.958 221.072C553.771 221.47 528.555 225.155 524.369 225.354C524.369 225.354 524.369 225.354 524.269 225.354C524.269 225.454 524.169 225.553 524.169 225.653C524.07 225.852 523.97 226.151 523.771 226.35C523.671 226.549 523.571 226.748 523.372 226.947C523.272 227.047 523.272 227.147 523.173 227.246C523.173 227.346 523.073 227.346 523.073 227.445C523.073 227.445 522.973 227.545 522.973 227.644C522.973 227.545 522.774 227.445 522.873 227.346Z" fill="#263238"/>
    <path d="M510.514 259.212C511.81 257.121 513.006 254.83 514.202 252.639C515.398 250.449 516.694 248.258 517.89 246.067C520.382 241.685 529.153 226.947 529.95 225.852C530.05 225.752 530.149 225.852 530.05 225.952C529.651 227.047 524.169 236.906 522.873 239.096C520.382 243.478 517.691 247.76 515.099 252.042C514.401 253.237 513.604 254.532 512.807 255.727C512.009 256.922 511.212 258.117 510.514 259.411C510.614 259.411 510.514 259.311 510.514 259.212Z" fill="#263238"/>
    <path d="M530.249 229.537C532.442 229.039 534.734 228.64 536.927 228.242C539.12 227.844 541.412 227.445 543.605 226.947C548.09 226.151 552.476 225.354 556.961 224.557C565.832 223.064 574.802 221.769 583.772 220.972C588.856 220.475 593.939 220.176 599.022 219.777C599.122 219.777 599.122 219.977 599.022 219.977C589.952 220.375 580.882 221.57 571.912 222.865C563.041 224.159 554.17 225.553 545.299 227.047C542.808 227.445 540.316 227.943 537.824 228.342C535.332 228.74 532.741 229.337 530.249 229.636C530.149 229.736 530.149 229.537 530.249 229.537Z" fill="#263238"/>
    <path d="M504.933 385.681C507.125 385.482 560.449 361.483 561.845 359.292C562.443 358.495 559.353 350.529 555.466 340.969C554.569 338.878 553.771 336.786 552.775 334.695C546.794 320.754 540.216 306.115 540.216 306.115L504.534 322.048L518.089 350.23L521.079 356.404C521.079 356.404 504.733 374.727 503.438 377.316C502.042 379.806 502.84 385.88 504.933 385.681Z" fill="#F7A9A0"/>
    <path d="M504.933 385.681C507.125 385.482 560.449 361.483 561.845 359.292C562.543 358.296 557.858 346.745 552.775 334.695L517.99 350.13L520.98 356.304C520.98 356.304 504.634 374.627 503.338 377.217C502.042 379.806 502.84 385.88 504.933 385.681Z" fill="#FCF2D5"/>
    <path d="M504.933 385.681C507.125 385.482 560.449 361.483 561.845 359.292C562.443 358.495 559.353 350.529 555.466 340.969L521.079 356.304C521.079 356.304 504.733 374.627 503.438 377.217C502.042 379.806 502.84 385.88 504.933 385.681Z" fill="#A6A6A6"/>
    <path d="M504.733 383.192C513.604 378.91 549.685 362.678 558.755 359.192C558.855 359.192 558.855 359.192 558.755 359.292C550.084 363.673 513.903 379.607 504.833 383.391C504.634 383.49 504.534 383.291 504.733 383.192Z" fill="#263238"/>
    <path d="M505.929 373.831C508.022 372.835 510.514 372.835 512.308 373.632C514.003 374.329 515.697 375.623 516.495 377.515C516.495 377.615 516.395 377.615 516.395 377.515C514.302 374.229 509.717 372.636 506.029 373.93C505.929 373.93 505.83 373.831 505.929 373.831Z" fill="#263238"/>
    <path d="M517.99 358.794C521.578 357.101 526.262 356.504 529.85 358.495C529.95 358.595 529.85 358.794 529.751 358.794C525.764 358.595 522.176 358.694 518.189 359.292C517.79 359.292 517.691 358.894 517.99 358.794Z" fill="#263238"/>
    <path d="M515.697 361.084C519.285 359.391 523.97 358.794 527.558 360.786C527.658 360.885 527.558 361.084 527.458 361.084C523.472 360.885 519.883 360.985 515.896 361.582C515.498 361.682 515.398 361.284 515.697 361.084Z" fill="#263238"/>
    <path d="M513.405 363.474C516.993 361.781 521.677 361.184 525.266 363.176C525.365 363.275 525.266 363.474 525.166 363.474C521.179 363.275 517.591 363.375 513.604 363.972C513.305 363.972 513.106 363.574 513.405 363.474Z" fill="#263238"/>
    <path d="M511.112 365.765C514.7 364.072 519.385 363.474 522.973 365.466C523.073 365.566 522.973 365.765 522.873 365.765C518.887 365.566 515.298 365.665 511.312 366.263C511.013 366.263 510.913 365.864 511.112 365.765Z" fill="#263238"/>
    <path d="M552.675 351.724C556.662 349.931 559.453 356.205 555.466 357.997C551.379 359.79 548.589 353.516 552.675 351.724Z" fill="#263238"/>
    <path d="M512.408 356.105C515.498 357.699 519.086 357.997 522.475 358.595C522.774 358.694 523.073 358.296 522.973 357.997C523.073 357.997 523.073 357.898 523.073 357.798C521.478 354.811 518.687 351.823 515.697 350.13C513.903 349.035 510.913 348.637 509.817 350.927C508.72 353.217 510.614 355.209 512.408 356.105ZM510.913 353.217C509.518 349.134 514.401 350.529 515.697 351.425C516.495 351.923 517.292 352.62 518.089 353.217C519.684 354.612 521.079 356.105 522.475 357.599C520.88 357.201 519.186 356.902 517.591 356.603C515.697 356.205 511.71 355.508 510.913 353.217Z" fill="#263238"/>
    <path d="M534.734 349.931C533.439 347.74 530.548 348.437 528.754 349.632C525.963 351.624 523.372 354.811 522.076 357.898C522.076 357.997 522.076 357.997 522.176 357.997C522.176 358.296 522.375 358.595 522.774 358.495C526.063 357.599 529.651 357.001 532.541 355.209C534.236 354.114 536.03 352.022 534.734 349.931ZM527.458 356.205C525.864 356.703 524.269 357.101 522.674 357.599C523.97 356.006 525.166 354.313 526.661 352.819C527.359 352.122 528.056 351.425 528.854 350.827C530.05 349.931 534.834 348.039 533.738 352.222C533.239 354.512 529.352 355.607 527.458 356.205Z" fill="#263238"/>
    <path d="M551.977 331.409L511.81 349.533C511.81 349.533 463.968 257.818 462.772 229.736C461.676 205.836 478.321 196.575 532.143 212.11L545.299 212.309V221.371C539.519 222.167 524.07 224.557 524.07 224.557C512.807 228.839 509.219 230.532 509.418 230.931C537.425 287.394 551.977 331.409 551.977 331.409Z" fill="#37474F"/>
    <path d="M502.84 220.873C504.434 223.064 505.929 225.254 507.424 227.545C516.096 223.661 525.465 221.47 534.834 220.375C537.525 220.076 540.117 219.777 542.808 219.678C542.907 219.678 542.907 219.877 542.808 219.877C533.339 220.475 523.97 222.367 514.9 225.155C512.408 225.952 509.916 226.848 507.524 227.744C509.219 230.532 510.913 233.321 512.408 236.208C515.298 241.486 517.89 246.963 520.282 252.64C521.578 255.727 522.873 258.814 523.97 262C523.97 262.1 523.87 262.1 523.771 262.1C518.887 251.146 513.504 240.491 507.723 230.034C506.129 227.047 504.335 224.159 502.74 221.172C502.64 220.873 502.74 220.773 502.84 220.873Z" fill="#263238"/>
    <path d="M510.913 339.873C513.305 338.977 515.498 337.782 517.79 336.786C520.083 335.79 522.375 334.695 524.668 333.699C529.252 331.608 545.1 325.036 546.495 324.737C546.595 324.737 546.595 324.836 546.595 324.936C545.598 325.633 535.332 330.114 533.04 331.11C528.355 333.102 523.671 334.894 519.086 336.786C517.79 337.284 516.395 337.882 515.099 338.38C513.803 338.878 512.408 339.375 511.112 339.973C510.913 340.072 510.813 339.873 510.913 339.873Z" fill="#263238"/>
    <path d="M503.039 224.956C506.228 230.931 508.92 237.304 511.71 243.478C514.501 249.652 517.093 255.926 519.684 262.199C524.867 274.647 529.651 287.294 534.136 300.041C536.628 307.21 539.02 314.48 541.313 321.749C541.313 321.849 541.213 321.849 541.113 321.749C536.827 308.903 532.243 296.157 527.458 283.41C522.674 270.763 517.591 258.216 512.109 245.868C510.614 242.383 509.019 238.897 507.524 235.412C505.929 231.926 504.335 228.541 502.84 224.956C502.74 224.956 502.939 224.856 503.039 224.956Z" fill="#263238"/>
    <path d="M528.455 148.875C510.514 162.717 494.168 178.65 492.175 187.911C490.979 193.787 495.464 203.247 498.753 208.724C500.348 211.413 525.764 195.181 522.973 193.189C516.295 188.21 514.9 186.019 515.299 184.725C515.498 183.928 533.837 161.124 538.422 151.564C544.901 138.319 536.329 142.801 528.455 148.875Z" fill="#F7A9A0"/>
    <path d="M502.64 169.489L519.684 181.14C519.684 181.14 535.731 160.825 539.618 150.668C543.505 140.51 539.22 140.311 529.153 147.581C519.086 154.651 502.64 169.489 502.64 169.489Z" fill="#FFC727"/>
    <path d="M502.64 169.489L519.684 181.14C519.684 181.14 535.731 160.825 539.618 150.668C543.505 140.51 539.22 140.311 529.153 147.581C519.086 154.651 502.64 169.489 502.64 169.489Z" fill="#FFC727"/>
    <path opacity="0.1" d="M532.741 153.356L530.847 152.858L531.346 150.966C531.346 150.767 531.246 150.568 531.047 150.568C530.847 150.568 530.648 150.668 530.648 150.867L530.15 153.058C530.15 153.058 530.15 153.058 530.15 153.157V153.257L532.342 153.854C532.442 153.854 532.542 153.854 532.641 153.854C532.741 153.854 532.741 153.755 532.841 153.655C533.04 153.655 532.841 153.456 532.741 153.356ZM534.136 149.174C534.136 148.975 533.937 148.875 533.837 148.875C533.638 148.875 533.538 149.074 533.538 149.273L534.037 152.858C534.037 153.058 534.236 153.157 534.336 153.157H534.435C534.535 153.058 534.635 152.958 534.635 152.858L534.136 149.174ZM537.426 149.174C537.426 149.074 537.426 149.074 537.426 149.074L535.233 148.477C535.033 148.377 534.834 148.576 534.834 148.776C534.734 148.975 534.934 149.174 535.133 149.174L537.027 149.672L536.528 151.564C536.528 151.763 536.628 151.962 536.827 151.962C536.927 151.962 537.027 151.962 537.127 151.962C537.226 151.863 537.326 151.863 537.326 151.763L537.824 149.572C537.425 149.273 537.426 149.273 537.426 149.174C537.426 149.273 537.426 149.273 537.426 149.174ZM520.98 158.037C520.88 157.837 520.681 157.738 520.581 157.837L518.388 158.535C518.388 158.535 518.388 158.535 518.388 158.634L519.086 160.825C519.086 160.925 519.186 161.024 519.285 161.024C519.385 161.024 519.485 161.024 519.584 161.024C519.784 160.925 519.883 160.725 519.784 160.526L519.186 158.734L520.98 158.136C520.98 158.435 521.079 158.236 520.98 158.037ZM523.87 159.431C523.771 159.331 523.571 159.331 523.472 159.431L520.78 161.721C520.681 161.821 520.681 162.02 520.78 162.12L520.88 162.219C520.98 162.219 521.079 162.219 521.179 162.219L523.87 159.929C523.97 159.73 523.97 159.53 523.87 159.431ZM525.764 162.219L525.066 160.028C524.967 159.829 524.767 159.73 524.568 159.829C524.369 159.929 524.269 160.128 524.369 160.227L524.967 162.02L523.173 162.617C522.973 162.717 522.874 162.916 522.973 163.016C522.973 163.115 523.073 163.215 523.173 163.215C523.272 163.215 523.372 163.215 523.472 163.215L525.664 162.518C525.664 162.518 525.664 162.518 525.764 162.518C525.764 162.319 525.764 162.319 525.764 162.219ZM510.614 171.281L511.91 169.887C512.009 169.688 512.009 169.489 511.91 169.389C511.81 169.289 511.511 169.289 511.411 169.389L509.817 170.982C509.817 170.982 509.817 170.982 509.817 171.082V171.181L511.411 172.775C511.511 172.874 511.611 172.874 511.71 172.874C511.81 172.874 511.91 172.874 511.91 172.775C512.009 172.675 512.009 172.376 511.91 172.277L510.614 171.281ZM515.199 169.289C515 169.19 514.8 169.289 514.8 169.489L513.405 172.775C513.305 172.974 513.405 173.173 513.604 173.173H513.704C513.804 173.173 513.903 173.074 514.003 172.974L515.398 169.688C515.398 169.588 515.398 169.389 515.199 169.289ZM518.189 171.181C518.189 171.082 518.189 171.082 518.189 171.082L516.594 169.489C516.495 169.389 516.196 169.389 516.096 169.489C515.996 169.688 515.996 169.887 516.096 169.986L517.392 171.381L516.096 172.775C515.996 172.874 515.996 173.173 516.096 173.273C516.196 173.372 516.295 173.372 516.395 173.372C516.495 173.372 516.594 173.372 516.594 173.273L518.189 171.679C518.189 171.679 518.189 171.679 518.189 171.58C518.189 171.58 518.189 171.58 518.189 171.48C518.189 171.381 518.189 171.381 518.189 171.181C518.189 171.281 518.189 171.281 518.189 171.181Z" fill="#030402"/>
    <path d="M522.076 176.758C514.302 172.277 508.322 167.298 506.926 166.302C506.827 166.302 506.926 166.202 507.026 166.202C508.322 167.198 516.196 172.177 522.176 176.658C522.176 176.758 522.176 176.858 522.076 176.758Z" fill="#263238"/>
    <path opacity="0.1" d="M541.014 145.688C540.914 146.883 540.416 148.576 539.618 150.568C535.731 160.725 519.684 181.04 519.684 181.04L512.906 176.459L541.014 145.688Z" fill="black"/>
    <path d="M579.786 212.01C579.686 212.209 522.176 213.404 521.578 212.807C520.78 212.01 526.063 158.037 534.435 144.693C536.528 141.307 546.296 138.917 550.682 143.398C567.626 161.024 580.184 211.413 579.786 212.01Z" fill="#FFC727"/>
    <path opacity="0.1" d="M532.741 153.356L531.047 152.958C530.947 153.157 530.847 153.456 530.847 153.655L532.641 154.053C532.741 154.053 532.841 154.053 532.94 154.053C533.04 154.053 533.04 153.954 533.14 153.854C533.04 153.655 532.841 153.456 532.741 153.356ZM534.136 149.174C534.136 148.975 533.937 148.875 533.837 148.875C533.638 148.875 533.538 149.074 533.538 149.273L534.037 152.858C534.037 153.058 534.236 153.157 534.336 153.157H534.435C534.535 153.058 534.635 152.958 534.635 152.858L534.136 149.174ZM537.426 149.174C537.426 149.074 537.426 149.074 537.426 149.074L535.233 148.477C535.033 148.377 534.834 148.576 534.834 148.775C534.734 148.975 534.934 149.174 535.133 149.174L537.027 149.672L536.528 151.564C536.528 151.763 536.628 151.962 536.827 151.962C536.927 151.962 537.027 151.962 537.127 151.962C537.226 151.863 537.326 151.863 537.326 151.763L537.824 149.572C537.425 149.273 537.426 149.273 537.426 149.174C537.426 149.273 537.426 149.273 537.426 149.174ZM556.762 171.58L554.868 171.082L555.366 169.19C555.366 168.991 555.267 168.791 555.067 168.791C554.868 168.791 554.669 168.891 554.669 169.09L554.17 171.281C554.17 171.281 554.17 171.281 554.17 171.381C554.17 171.381 554.17 171.381 554.17 171.48C554.17 171.48 554.17 171.48 554.17 171.58L556.363 172.177C556.463 172.177 556.562 172.177 556.662 172.078C556.762 172.078 556.762 171.978 556.861 171.879C557.061 171.779 556.961 171.58 556.762 171.58ZM558.257 167.298C558.257 167.099 558.057 166.999 557.958 166.999C557.758 166.999 557.659 167.198 557.659 167.397L558.157 170.982C558.157 171.181 558.356 171.281 558.556 171.281H558.655C558.755 171.181 558.855 171.082 558.855 170.982L558.257 167.298ZM561.446 167.397C561.446 167.298 561.446 167.298 561.446 167.298L559.253 166.7C559.054 166.7 558.855 166.8 558.855 166.999C558.855 167.198 558.954 167.397 559.154 167.397L561.048 167.895L560.549 169.787C560.45 169.986 560.649 170.186 560.848 170.186C560.948 170.186 561.048 170.186 561.147 170.186C561.247 170.086 561.247 170.086 561.347 169.986L561.845 167.796C561.446 167.497 561.446 167.497 561.446 167.397ZM530.15 192.99L528.256 192.492L528.754 190.6C528.754 190.401 528.654 190.202 528.455 190.202C528.256 190.202 528.056 190.301 527.957 190.5L527.458 192.691C527.458 192.691 527.458 192.691 527.458 192.791V192.89L529.651 193.488C529.751 193.488 529.851 193.488 529.95 193.488C530.05 193.488 530.05 193.388 530.15 193.289C530.449 193.289 530.349 193.089 530.15 192.99ZM531.645 188.807C531.645 188.608 531.445 188.509 531.346 188.509C531.146 188.509 531.047 188.708 531.047 188.907L531.545 192.492C531.545 192.691 531.744 192.791 531.944 192.791H532.043C532.143 192.691 532.243 192.592 532.143 192.492L531.645 188.807ZM534.834 188.807C534.834 188.708 534.834 188.708 534.834 188.708C534.834 188.708 534.834 188.708 534.734 188.708C534.734 188.708 534.734 188.708 534.635 188.708L532.442 188.11C532.243 188.11 532.043 188.21 532.043 188.409C532.043 188.608 532.143 188.807 532.342 188.807L534.236 189.305L533.738 191.197C533.738 191.397 533.837 191.596 534.037 191.596C534.136 191.596 534.236 191.596 534.336 191.596C534.435 191.596 534.435 191.496 534.535 191.397L535.033 189.206C534.834 188.907 534.834 188.907 534.834 188.807C534.834 188.907 534.834 188.907 534.834 188.807ZM557.16 207.927L555.366 207.429L555.865 205.537C555.964 205.338 555.765 205.139 555.566 205.139C555.366 205.139 555.167 205.238 555.167 205.438L554.569 207.628C554.569 207.628 554.569 207.628 554.569 207.728V207.828L556.762 208.425C556.861 208.425 556.961 208.425 557.061 208.326C557.16 208.326 557.16 208.226 557.26 208.126C557.459 208.226 557.36 208.027 557.16 207.927ZM558.556 203.745C558.556 203.546 558.356 203.446 558.157 203.446C557.958 203.446 557.858 203.645 557.858 203.745L558.356 207.33C558.356 207.529 558.556 207.628 558.755 207.628H558.855C558.954 207.529 559.054 207.429 559.054 207.33L558.556 203.745ZM561.845 203.745C561.845 203.645 561.845 203.645 561.845 203.745C561.845 203.645 561.845 203.645 561.845 203.645C561.845 203.645 561.845 203.645 561.745 203.645L559.552 203.048C559.353 203.048 559.154 203.147 559.154 203.346C559.154 203.546 559.253 203.745 559.453 203.745L561.347 204.243L560.848 206.135C560.848 206.334 560.948 206.533 561.147 206.533C561.247 206.533 561.347 206.533 561.446 206.433C561.546 206.433 561.646 206.334 561.646 206.234L562.144 204.044C561.845 203.844 561.845 203.844 561.845 203.745C561.845 203.844 561.845 203.844 561.845 203.745ZM550.183 144.294C550.084 144.095 549.884 143.996 549.685 144.095L547.492 144.792L548.19 146.983C548.19 147.083 548.29 147.182 548.389 147.182C548.489 147.182 548.589 147.282 548.688 147.182C548.888 147.083 548.987 146.883 548.888 146.684L548.29 144.892L550.084 144.294C550.084 144.693 550.183 144.493 550.183 144.294ZM552.675 145.688L549.884 148.078C549.785 148.178 549.685 148.377 549.884 148.477L549.984 148.576C550.084 148.676 550.183 148.676 550.283 148.576L552.974 146.286C552.974 145.987 552.775 145.788 552.675 145.688ZM553.572 146.684L554.071 148.377L552.276 148.975C552.077 149.074 551.977 149.273 552.077 149.373C552.077 149.473 552.177 149.572 552.276 149.572C552.376 149.572 552.476 149.672 552.576 149.572L554.768 148.875C554.768 148.875 554.768 148.875 554.768 148.775V148.676C554.469 147.879 553.971 147.282 553.572 146.684ZM542.708 177.057C542.608 176.858 542.409 176.758 542.21 176.858L540.017 177.555C540.017 177.555 540.017 177.555 540.017 177.654L540.715 179.845C540.715 179.945 540.814 180.044 540.914 180.044C541.014 180.044 541.113 180.044 541.213 180.044C541.412 179.945 541.512 179.746 541.412 179.546L540.814 177.754L542.608 177.156C542.708 177.455 542.808 177.256 542.708 177.057ZM545.599 178.451C545.499 178.351 545.3 178.351 545.2 178.451L542.509 180.741C542.409 180.841 542.409 181.04 542.509 181.14L542.608 181.239C542.708 181.339 542.808 181.239 542.907 181.239L545.599 178.849C545.698 178.75 545.698 178.551 545.599 178.451ZM547.492 181.339L546.795 179.148C546.695 178.949 546.496 178.849 546.296 178.949C546.097 179.048 545.997 179.248 546.097 179.447L546.695 181.239L544.901 181.837C544.701 181.936 544.602 182.135 544.701 182.335C544.701 182.434 544.801 182.534 544.901 182.534C545.001 182.534 545.1 182.633 545.2 182.534L547.393 181.837C547.393 181.837 547.393 181.837 547.492 181.837C547.492 181.438 547.492 181.438 547.492 181.339ZM568.423 193.189C568.323 192.99 568.124 192.89 567.925 192.99L565.732 193.687V193.787L566.43 195.977C566.43 196.077 566.529 196.177 566.629 196.177C566.729 196.177 566.828 196.177 566.928 196.177C567.127 196.077 567.227 195.878 567.127 195.679L566.529 193.886L568.323 193.289C568.423 193.587 568.523 193.388 568.423 193.189ZM571.413 194.583C571.314 194.484 571.114 194.384 570.915 194.583L568.224 196.874C568.124 196.973 568.024 197.172 568.224 197.372C568.224 197.372 568.323 197.372 568.323 197.471C568.423 197.571 568.523 197.471 568.722 197.471L571.413 195.081C571.513 194.882 571.513 194.683 571.413 194.583ZM573.207 197.372L572.51 195.181C572.41 194.982 572.211 194.882 572.011 194.982C571.812 195.081 571.712 195.28 571.812 195.479L572.41 197.272L570.616 197.869C570.417 197.969 570.317 198.168 570.417 198.367C570.417 198.467 570.516 198.566 570.616 198.566C570.716 198.566 570.815 198.666 570.915 198.566L573.108 197.869C573.108 197.869 573.108 197.869 573.108 197.77L573.207 197.372ZM542.309 160.227L543.705 158.833C543.804 158.734 543.804 158.435 543.705 158.335C543.605 158.236 543.306 158.236 543.206 158.335L541.612 159.929V160.028V160.128C541.612 160.128 541.612 160.128 541.612 160.227L543.206 161.821C543.306 161.92 543.406 161.92 543.505 161.92C543.605 161.92 543.705 161.92 543.705 161.821C543.804 161.721 543.804 161.422 543.705 161.323L542.309 160.227ZM546.894 158.236C546.695 158.136 546.595 158.236 546.496 158.435L545.1 161.721C545.001 161.92 545.1 162.02 545.299 162.119H545.399C545.499 162.119 545.599 162.02 545.698 161.92L547.094 158.634C547.193 158.535 547.094 158.335 546.894 158.236ZM549.884 160.128C549.884 160.028 549.884 160.028 549.884 160.128C549.884 160.028 549.884 160.028 549.884 160.028L548.19 158.335C548.09 158.236 547.791 158.236 547.692 158.335C547.592 158.435 547.592 158.734 547.692 158.833L549.087 160.227L547.692 161.622C547.592 161.721 547.592 162.02 547.692 162.119C547.791 162.219 547.891 162.219 547.991 162.219C548.09 162.219 548.19 162.219 548.19 162.119L549.785 160.526C549.785 160.526 549.785 160.526 549.785 160.427C549.785 160.427 549.785 160.427 549.785 160.327C549.884 160.227 549.884 160.227 549.884 160.128ZM558.157 183.231L559.552 181.837C559.652 181.737 559.652 181.438 559.552 181.339C559.453 181.239 559.154 181.239 559.054 181.339L557.459 182.932C557.459 182.932 557.459 182.932 557.459 183.032C557.459 183.032 557.459 183.032 557.459 183.131L559.054 184.725C559.154 184.824 559.253 184.824 559.353 184.824C559.453 184.824 559.552 184.824 559.552 184.725C559.652 184.625 559.652 184.326 559.552 184.227L558.157 183.231ZM562.742 181.339C562.543 181.239 562.443 181.339 562.343 181.538L560.948 184.824C560.848 185.023 560.948 185.123 561.147 185.223H561.247C561.346 185.223 561.446 185.123 561.546 185.023L562.941 181.737C562.941 181.538 562.842 181.438 562.742 181.339ZM565.632 183.231C565.632 183.131 565.632 183.131 565.632 183.131L564.038 181.538C563.938 181.438 563.639 181.438 563.539 181.538C563.44 181.638 563.44 181.936 563.539 182.036L564.935 183.43L563.539 184.824C563.44 184.924 563.44 185.223 563.539 185.322C563.639 185.422 563.739 185.422 563.838 185.422C563.938 185.422 564.038 185.422 564.038 185.322L565.632 183.729C565.632 183.729 565.632 183.729 565.632 183.629C565.632 183.629 565.632 183.629 565.632 183.53V183.43C565.632 183.33 565.632 183.231 565.632 183.231ZM532.442 205.736L533.837 204.342C533.937 204.243 533.937 203.944 533.837 203.844C533.738 203.745 533.439 203.745 533.339 203.844L531.744 205.438C531.744 205.438 531.744 205.438 531.744 205.537V205.637L533.339 207.23C533.439 207.33 533.538 207.33 533.638 207.33C533.738 207.33 533.837 207.33 533.837 207.23C533.937 207.131 533.937 206.832 533.837 206.732L532.442 205.736ZM537.027 203.844C536.827 203.745 536.728 203.844 536.628 204.044L535.233 207.33C535.133 207.529 535.233 207.728 535.432 207.728H535.532C535.631 207.728 535.731 207.628 535.831 207.529L537.226 204.243C537.226 204.044 537.226 203.844 537.027 203.844ZM540.017 205.736C540.017 205.637 540.017 205.637 540.017 205.736C540.017 205.637 540.017 205.637 540.017 205.637L538.422 204.044C538.323 203.944 538.024 203.944 537.924 204.044C537.824 204.243 537.824 204.442 537.924 204.541L539.319 205.936L537.924 207.33C537.824 207.429 537.824 207.728 537.924 207.828C538.024 207.927 538.123 207.927 538.123 207.927C538.223 207.927 538.323 207.927 538.422 207.828L540.017 206.234C540.017 206.234 540.017 206.234 540.017 206.135C540.017 206.135 540.017 206.135 540.017 206.035C540.017 205.836 540.017 205.836 540.017 205.736ZM573.706 209.919C573.606 209.819 573.307 209.819 573.207 209.919L571.613 211.512C571.613 211.512 571.613 211.512 571.613 211.612L571.812 211.811C572.111 211.811 572.51 211.811 572.809 211.811L572.31 211.313L573.606 209.919C573.805 210.317 573.805 210.018 573.706 209.919ZM576.895 209.819C576.696 209.72 576.596 209.819 576.497 210.018L575.599 212.209C575.799 212.209 576.098 212.209 576.297 212.209L577.095 210.317C577.194 210.118 577.095 209.919 576.895 209.819ZM579.885 211.711C579.885 211.612 579.885 211.612 579.885 211.711C579.885 211.612 579.885 211.612 579.885 211.612L578.39 210.018C578.191 209.919 577.992 209.919 577.892 210.018C577.792 210.118 577.792 210.417 577.892 210.516L579.188 211.91L578.889 212.209C579.586 212.209 579.985 212.209 579.985 212.11C579.985 212.11 579.985 212.11 579.985 212.01C579.985 212.01 579.985 212.01 579.985 211.91L579.885 211.711C579.885 211.811 579.885 211.811 579.885 211.711ZM532.94 173.571C532.94 173.372 532.741 173.273 532.542 173.273L530.648 173.671L530.249 171.779C530.249 171.58 530.05 171.48 529.85 171.48C529.651 171.48 529.551 171.679 529.551 171.879L530.05 174.069C530.05 174.069 530.05 174.069 530.05 174.169C530.05 174.169 530.05 174.169 530.15 174.169L532.342 173.671C532.442 173.671 532.542 173.571 532.542 173.472C532.94 173.771 532.94 173.671 532.94 173.571ZM533.937 171.879L531.844 168.891C531.744 168.791 531.545 168.692 531.445 168.791C531.346 168.891 531.246 169.09 531.346 169.19L533.439 172.177C533.538 172.277 533.738 172.376 533.837 172.277L533.937 172.177C534.037 172.078 534.037 171.978 533.937 171.879ZM535.332 169.787L534.834 167.597C534.834 167.597 534.834 167.596 534.834 167.497C534.834 167.497 534.834 167.497 534.834 167.397C534.834 167.397 534.834 167.397 534.734 167.397C534.734 167.397 534.734 167.397 534.635 167.397C534.635 167.397 534.635 167.397 534.535 167.397L532.342 167.895C532.143 167.995 532.043 168.094 532.043 168.294C532.043 168.493 532.243 168.592 532.442 168.592L534.336 168.194L534.734 170.086C534.734 170.285 534.934 170.385 535.133 170.385C535.233 170.385 535.332 170.285 535.332 170.186C535.332 169.986 535.332 169.887 535.332 169.787ZM549.486 198.168L547.592 198.566L547.193 196.674C547.094 196.475 546.994 196.376 546.795 196.376C546.595 196.376 546.496 196.575 546.496 196.774L546.994 198.965C546.994 198.965 546.994 198.965 546.994 199.064C546.994 199.064 546.994 199.064 546.994 199.164L549.187 198.666C549.286 198.666 549.386 198.567 549.386 198.467C549.386 198.367 549.486 198.268 549.386 198.168C549.884 198.268 549.685 198.069 549.486 198.168ZM550.981 196.674L548.888 193.687C548.788 193.587 548.589 193.488 548.489 193.587C548.389 193.687 548.29 193.886 548.389 193.986L550.482 196.973C550.582 197.073 550.781 197.172 550.881 197.073C550.881 197.073 550.981 197.073 550.981 196.973C551.08 196.973 551.08 196.774 550.981 196.674ZM552.376 194.583L551.878 192.392C551.878 192.392 551.878 192.392 551.778 192.392H551.678L549.486 192.89C549.286 192.99 549.187 193.089 549.187 193.289C549.187 193.488 549.386 193.587 549.585 193.587L551.479 193.189L551.878 195.081C551.977 195.28 552.077 195.38 552.276 195.38C552.376 195.38 552.476 195.28 552.476 195.181C552.376 194.782 552.376 194.683 552.376 194.583ZM522.475 211.413L521.578 210.118C521.578 210.516 521.578 210.815 521.578 211.114L521.977 211.711C522.076 211.811 522.276 211.91 522.375 211.811L522.475 211.711C522.575 211.612 522.575 211.512 522.475 211.413ZM523.87 209.321L523.372 207.131C523.372 207.131 523.372 207.131 523.372 207.031C523.372 207.031 523.372 207.031 523.372 206.931C523.372 206.931 523.372 206.931 523.272 206.931H523.173L521.977 207.131C521.977 207.429 521.976 207.628 521.877 207.927L522.874 207.728L523.272 209.62C523.372 209.819 523.472 209.919 523.671 209.919C523.771 209.919 523.87 209.819 523.87 209.72C523.87 209.62 523.97 209.421 523.87 209.321Z" fill="#030402"/>
    <path d="M538.322 218.284C536.03 220.176 531.744 214.101 531.744 214.101C531.744 214.101 532.043 216.193 530.847 217.786C529.452 219.578 525.963 218.284 525.963 218.284C525.963 218.284 525.764 220.475 524.369 221.968C522.873 223.562 519.186 222.765 519.186 222.765C519.186 222.765 517.99 224.657 515.697 225.155C511.91 225.952 507.823 221.67 505.132 219.08C502.541 216.392 497.557 206.334 496.361 204.541L513.405 187.513C513.405 187.513 528.654 196.177 531.246 199.662C533.538 202.649 541.811 215.296 538.322 218.284Z" fill="#F7A9A0"/>
    <path d="M531.744 213.902C530.149 210.118 527.658 206.732 525.166 203.546C525.066 203.446 524.967 203.546 525.066 203.645C527.558 206.832 529.252 210.815 531.545 214.101C531.645 214.101 531.744 214.002 531.744 213.902Z" fill="#263238"/>
    <path d="M526.063 217.985C525.664 217.188 524.967 216.392 524.369 215.695C523.771 214.898 523.073 214.201 522.375 213.404C521.079 211.911 519.684 210.516 518.289 209.122C518.189 209.023 518.089 209.122 518.189 209.222C519.485 210.716 520.78 212.209 522.076 213.703C522.674 214.5 523.372 215.197 523.97 215.993C524.568 216.69 525.066 217.487 525.764 218.085C525.963 218.184 526.163 218.085 526.063 217.985Z" fill="#263238"/>
    <path d="M519.086 222.665C518.787 221.968 517.99 221.271 517.491 220.674C516.893 219.977 516.295 219.379 515.697 218.682C514.501 217.388 513.305 215.993 512.109 214.599C512.009 214.5 511.91 214.599 512.009 214.699C513.205 216.093 514.401 217.487 515.597 218.881C516.196 219.578 516.794 220.275 517.392 220.972C517.79 221.57 518.289 222.367 519.086 222.665Z" fill="#263238"/>
    <path d="M554.27 144.892C581.978 158.833 607.693 180.443 607.095 188.907C606.497 197.77 591.347 210.417 576.795 214.998C573.805 215.993 560.35 195.28 563.24 193.687C565.533 192.492 575.998 187.314 577.094 185.521C577.792 184.326 556.263 163.215 548.389 151.564C540.216 139.514 546.795 141.108 554.27 144.892Z" fill="#F7A9A0"/>
    <path d="M569.42 191.895C569.42 191.895 560.25 194.484 554.37 196.475C551.08 197.571 545.599 199.961 543.505 201.952C540.416 204.84 529.452 218.782 532.841 221.57C535.831 224.059 538.821 218.782 538.821 218.782C538.821 218.782 535.033 224.259 538.821 225.752C542.608 227.346 545.698 219.977 545.698 219.977C545.698 219.977 541.313 225.553 545.499 226.748C549.087 227.844 553.672 219.877 553.672 219.877C553.672 219.877 548.389 225.155 551.977 226.649C555.964 228.242 564.237 217.188 564.237 217.188C572.41 216.69 577.194 215.197 582.477 212.608C583.573 212.11 569.42 191.895 569.42 191.895Z" fill="#F7A9A0"/>
    <path d="M544.602 221.769C544.901 221.172 545.2 220.674 545.399 220.076C545.898 218.981 546.496 217.885 547.094 216.89C547.692 215.894 548.389 214.898 549.087 214.002C549.884 213.006 550.682 212.11 551.379 211.014C551.479 210.915 551.579 211.014 551.479 211.114C550.682 212.11 550.084 213.205 549.486 214.201C548.888 215.197 548.19 216.292 547.592 217.288C546.994 218.284 546.296 219.28 545.698 220.275C545.399 220.773 545.1 221.271 544.801 221.769C544.502 222.267 544.303 222.765 543.904 223.163C543.904 223.163 543.804 223.163 543.804 223.064C544.103 222.765 544.402 222.267 544.602 221.769Z" fill="#263238"/>
    <path d="M538.023 219.777C538.323 218.782 540.515 214.798 541.113 213.803C542.309 211.91 543.705 210.118 545.2 208.425C545.299 208.326 545.399 208.425 545.299 208.525C544.103 210.417 542.907 212.309 541.711 214.3C541.113 215.197 538.522 219.578 538.223 219.977C538.223 220.076 538.023 219.977 538.023 219.777Z" fill="#263238"/>
    <path d="M550.781 223.761C551.08 222.765 553.173 219.08 553.771 218.184C554.369 217.288 557.16 214.101 558.057 213.305C558.157 213.205 558.257 213.305 558.157 213.404C556.861 215.097 555.566 216.79 554.27 218.582C553.672 219.479 551.479 223.064 550.881 223.86C550.881 223.96 550.682 223.86 550.781 223.761Z" fill="#263238"/>
    <path d="M585.467 162.617L569.021 178.053C569.021 178.053 551.379 159.232 545.997 149.771C540.615 140.311 544.801 139.514 555.865 145.091C566.928 150.568 585.467 162.617 585.467 162.617Z" fill="#FFC727"/>
    <path opacity="0.1" d="M561.446 167.397C561.446 167.298 561.446 167.298 561.446 167.298L559.253 166.7C559.154 166.7 559.154 166.7 559.054 166.7C559.353 166.999 559.552 167.298 559.851 167.597L560.948 167.895L560.748 168.692C560.948 168.891 561.147 169.09 561.347 169.389L561.745 167.796C561.446 167.497 561.446 167.497 561.446 167.397ZM550.183 144.294C550.084 144.095 549.884 143.996 549.685 144.095L547.492 144.792L548.19 146.983C548.19 147.083 548.29 147.182 548.389 147.182C548.489 147.182 548.589 147.282 548.688 147.182C548.888 147.083 548.987 146.883 548.888 146.684L548.29 144.892L550.084 144.294C550.084 144.693 550.183 144.493 550.183 144.294ZM553.074 145.688C552.974 145.589 552.775 145.489 552.576 145.688L549.884 148.078C549.785 148.178 549.685 148.377 549.884 148.477L549.984 148.576C550.084 148.676 550.183 148.676 550.283 148.576L552.974 146.286C553.173 145.987 553.174 145.788 553.074 145.688ZM554.868 148.477L554.17 146.286C554.071 146.087 553.871 145.987 553.672 146.087C553.473 146.186 553.373 146.386 553.473 146.585L554.071 148.377L552.276 148.975C552.077 149.074 551.977 149.273 552.077 149.373C552.077 149.473 552.177 149.572 552.276 149.572C552.376 149.572 552.476 149.672 552.576 149.572L554.768 148.875C554.768 148.875 554.768 148.875 554.768 148.775L554.868 148.477ZM575.3 164.509C575.201 164.31 575.001 164.211 574.802 164.31L572.609 165.007C572.609 165.007 572.609 165.007 572.51 165.007C572.51 165.007 572.51 165.007 572.41 165.007L573.108 167.198C573.108 167.298 573.207 167.397 573.307 167.397C573.407 167.397 573.506 167.397 573.606 167.397C573.805 167.298 573.905 167.099 573.805 166.999L573.207 165.207L575.001 164.609C575.201 164.908 575.3 164.709 575.3 164.509ZM578.191 165.904C578.091 165.804 577.892 165.704 577.792 165.904L575.101 168.194C575.001 168.294 575.001 168.493 575.101 168.592L575.201 168.692C575.3 168.791 575.4 168.692 575.5 168.692L578.191 166.302C578.291 166.202 578.291 166.003 578.191 165.904ZM579.287 166.501C579.188 166.302 578.988 166.202 578.789 166.302C578.59 166.402 578.49 166.601 578.59 166.8L579.188 168.493L579.786 167.995L579.287 166.501ZM577.194 169.688C577.194 169.787 577.294 169.887 577.394 169.887C577.493 169.887 577.593 169.986 577.693 169.887H577.792L579.088 168.692L577.493 169.19C577.194 169.289 577.094 169.489 577.194 169.688ZM566.131 158.634C566.131 158.435 565.931 158.335 565.732 158.335L563.838 158.734L563.44 156.842C563.34 156.642 563.24 156.543 563.041 156.543C562.842 156.543 562.742 156.742 562.742 156.941L563.24 159.132C563.24 159.132 563.24 159.132 563.24 159.232L565.433 158.734C565.533 158.734 565.632 158.634 565.632 158.535C566.131 158.833 566.131 158.734 566.131 158.634ZM567.127 156.941L565.034 153.954C564.935 153.854 564.735 153.755 564.636 153.854C564.436 153.954 564.436 154.153 564.536 154.253L566.629 157.24C566.729 157.34 566.928 157.439 567.028 157.34L567.127 157.24C567.127 157.14 567.127 157.041 567.127 156.941ZM568.523 154.85L568.024 152.659C568.024 152.659 568.024 152.659 568.024 152.56C568.024 152.56 568.024 152.56 568.024 152.46C568.024 152.46 568.024 152.46 568.024 152.36C568.024 152.36 568.024 152.36 567.925 152.36C567.925 152.36 567.925 152.36 567.825 152.36L565.632 152.858C565.433 152.958 565.333 153.058 565.333 153.257C565.333 153.456 565.533 153.555 565.732 153.555L567.626 153.157L568.024 155.049C568.124 155.248 568.224 155.348 568.423 155.348C568.523 155.348 568.622 155.248 568.622 155.149C568.622 155.049 568.523 154.95 568.523 154.85Z" fill="#030402"/>
    <path d="M580.782 160.725C574.702 167.596 568.423 172.775 567.227 173.97C567.127 174.069 567.127 173.97 567.127 173.87C568.423 172.775 575.001 165.804 580.683 160.626C580.782 160.526 580.882 160.626 580.782 160.725Z" fill="#263238"/>
    <path d="M570.118 176.957C570.018 176.957 569.221 177.654 569.121 177.754C566.43 174.567 566.928 175.364 564.237 172.177C562.941 170.584 561.546 169.09 560.25 167.497C558.855 165.904 557.559 164.211 556.064 162.617C556.064 162.617 555.964 162.617 555.964 162.717C556.961 164.31 558.257 165.804 559.453 167.298C559.253 167.099 558.954 166.899 558.755 166.601C558.157 166.103 557.659 165.704 557.16 165.207C557.061 165.107 556.961 165.207 557.061 165.306C557.559 165.804 558.057 166.302 558.456 166.8C558.954 167.298 559.353 167.796 559.851 168.294C560.35 168.791 560.848 169.19 561.347 169.588C561.446 169.688 561.446 169.688 561.546 169.787C562.343 170.684 563.041 171.679 563.838 172.576C566.529 175.762 569.121 178.252 569.221 178.152C569.221 178.053 570.118 177.156 570.118 176.957Z" fill="#263238"/>
    <path d="M539.12 153.456C541.512 153.157 545.798 147.78 547.094 143.597C547.193 143.298 546.197 140.709 545.299 137.423C544.701 135.432 544.103 133.241 543.705 131.149L531.445 136.826C531.445 136.826 533.538 140.909 534.236 144.493C534.336 144.792 534.336 145.091 534.336 145.39V145.489C534.336 147.182 535.233 153.954 539.12 153.456Z" fill="#F7A9A0"/>
    <path d="M534.236 145.39V145.489C534.635 145.489 535.133 145.39 535.631 145.29C543.107 143.597 543.107 134.037 542.907 131.448L531.346 136.826C531.346 136.826 533.439 140.909 534.136 144.493C534.236 144.892 534.236 145.191 534.236 145.39Z" fill="#263238"/>
    <path d="M544.701 117.407C546.296 121.988 544.203 135.531 540.914 138.618C536.229 143.099 528.355 143.697 524.468 138.021C520.681 132.544 523.77 114.918 527.359 112.129C532.841 107.947 542.409 110.536 544.701 117.407Z" fill="#F7A9A0"/>
    <path d="M532.641 125.872C532.442 126.867 532.442 127.963 533.14 128.361C532.143 128.062 532.243 126.668 532.641 125.872Z" fill="#263238"/>
    <path d="M533.538 125.075C535.033 125.274 534.535 128.162 533.239 128.062C531.844 127.863 532.342 124.876 533.538 125.075Z" fill="#263238"/>
    <path d="M527.458 124.876C527.259 125.872 526.96 126.867 526.063 127.067V127.166C527.159 127.166 527.558 125.772 527.458 124.876Z" fill="#263238"/>
    <path d="M526.86 123.78C525.365 123.482 524.867 126.37 526.163 126.668C527.458 126.967 528.056 124.079 526.86 123.78Z" fill="#263238"/>
    <path d="M534.934 123.88C534.535 123.681 534.236 123.482 533.837 123.283C533.439 123.083 533.04 122.884 532.841 122.486C532.741 122.287 532.841 121.888 533.04 121.789C533.538 121.49 534.136 121.59 534.635 121.888C535.233 122.187 535.532 122.486 535.831 123.083C536.13 123.581 535.432 124.079 534.934 123.88Z" fill="#263238"/>
    <path d="M525.864 120.893C526.262 120.893 526.661 120.793 527.06 120.793C527.558 120.693 527.857 120.793 528.256 120.395C528.455 120.195 528.455 119.797 528.355 119.598C528.056 119.1 527.458 119 526.86 119.1C526.262 119.1 525.764 119.299 525.365 119.797C524.967 120.195 525.365 120.893 525.864 120.893Z" fill="#263238"/>
    <path d="M532.143 134.535C531.844 134.734 531.645 134.934 531.246 134.934C530.947 134.934 530.548 134.734 530.349 134.535C530.548 134.934 530.947 135.232 531.445 135.232C531.744 135.232 532.043 134.934 532.143 134.535C532.243 134.535 532.143 134.436 532.143 134.535Z" fill="#263238"/>
    <path d="M531.545 131.647C530.947 132.344 530.05 132.643 529.252 132.743C528.854 132.743 528.455 132.743 528.156 132.643C528.056 132.643 528.056 132.643 527.957 132.544C527.857 132.544 527.857 132.544 527.757 132.444C527.658 132.444 527.658 132.344 527.558 132.245V132.145V132.046C527.658 131.349 527.857 130.253 527.857 130.253C527.558 130.353 526.163 130.751 526.262 130.353C526.96 127.365 527.658 123.98 528.953 121.191C528.953 121.092 529.153 121.191 529.153 121.191C528.654 124.079 527.658 126.867 527.06 129.855C527.458 129.755 528.256 129.556 528.555 129.656C528.654 129.656 528.056 131.647 528.056 132.046C529.252 132.344 530.249 132.145 531.545 131.647C531.645 131.548 531.545 131.448 531.545 131.647Z" fill="#263238"/>
    <path d="M528.654 132.245C528.654 132.245 529.153 133.141 529.95 133.639C530.249 133.838 530.548 133.938 530.947 133.838C531.744 133.739 531.844 133.141 531.744 132.544C531.744 132.046 531.545 131.647 531.545 131.647C531.545 131.647 530.349 132.444 528.654 132.245Z" fill="#263238"/>
    <path d="M529.95 133.639C530.249 133.838 530.548 133.938 530.947 133.838C531.744 133.739 531.844 133.141 531.744 132.544C530.947 132.444 530.149 132.842 529.95 133.639Z" fill="#FF9BBC"/>
    <path d="M544.203 129.656C544.203 129.656 549.087 121.59 548.688 116.909C548.489 114.818 545.599 113.324 545.599 113.324C545.599 113.324 546.496 110.735 544.103 108.544C541.612 106.154 535.532 106.752 535.532 106.752C535.532 106.752 531.645 101.076 526.063 103.366C520.481 105.657 524.169 111.93 524.169 111.93C524.169 111.93 522.176 114.818 527.06 117.108C531.944 119.299 541.811 117.108 541.811 117.108C541.811 117.108 541.014 122.187 541.911 127.365C542.309 129.158 544.203 129.656 544.203 129.656Z" fill="#263238"/>
    <path d="M534.535 106.752C535.731 106.254 537.126 106.055 538.422 106.055C539.618 106.055 540.814 106.254 541.911 106.652C543.904 107.349 545.698 108.843 545.997 111.034C546.197 112.129 545.898 113.225 545.2 114.121H545.1C546.396 112.528 545.698 110.038 544.402 108.744C542.907 107.25 540.615 106.652 538.522 106.553C537.126 106.453 535.731 106.752 534.435 106.951C534.535 106.951 534.435 106.851 534.535 106.752Z" fill="#263238"/>
    <path d="M522.076 105.955C522.574 104.362 523.87 103.366 525.365 102.968C527.06 102.47 528.953 102.569 530.648 103.167C532.342 103.764 533.837 104.959 534.934 106.354C534.934 106.354 534.934 106.453 534.834 106.354C532.741 103.864 529.452 102.47 526.262 103.167C524.867 103.466 523.372 104.262 522.674 105.557C522.076 106.851 522.176 108.445 522.774 109.64C523.571 111.134 524.867 112.328 526.362 113.225V113.324C524.967 112.528 523.671 111.631 522.774 110.337C521.976 109.042 521.578 107.449 522.076 105.955Z" fill="#263238"/>
    <path d="M532.542 131.249C530.448 130.552 529.352 128.262 530.05 126.17C530.747 124.079 533.04 122.984 535.133 123.681C537.226 124.378 538.323 126.668 537.625 128.76C537.027 130.552 535.332 131.647 533.538 131.448C533.14 131.349 532.841 131.349 532.542 131.249ZM530.449 126.27C529.85 128.062 530.847 130.054 532.641 130.652C534.435 131.249 536.429 130.253 537.027 128.461C537.625 126.668 536.628 124.677 534.834 124.079C534.535 123.98 534.236 123.88 534.037 123.88C532.442 123.78 531.047 124.776 530.449 126.27Z" fill="#455A64"/>
    <path d="M524.169 129.556C522.574 129.257 521.578 127.266 521.976 125.075C522.176 124.079 522.674 123.083 523.372 122.486C524.07 121.789 524.867 121.59 525.664 121.689C526.462 121.888 527.159 122.386 527.558 123.283C527.957 124.079 528.056 125.175 527.857 126.17C527.458 128.262 525.963 129.656 524.468 129.556C524.369 129.556 524.269 129.556 524.169 129.556ZM523.771 122.884C523.172 123.482 522.774 124.278 522.574 125.175C522.176 127.067 522.973 128.76 524.269 129.058C525.565 129.357 526.96 127.963 527.359 126.071C527.558 125.175 527.458 124.179 527.06 123.482C526.761 122.785 526.163 122.287 525.565 122.187C525.465 122.187 525.465 122.187 525.365 122.187C524.867 122.187 524.269 122.386 523.771 122.884Z" fill="#455A64"/>
    <path d="M530.05 126.569L530.448 126.27C529.95 125.672 528.654 124.677 527.558 125.573L527.857 125.971C528.854 125.274 529.95 126.569 530.05 126.569Z" fill="#455A64"/>
    <path d="M547.393 131.05L547.891 130.851C547.791 130.652 547.193 128.461 545.997 128.062C544.901 127.664 537.724 126.967 537.425 126.967L537.326 127.465C539.419 127.664 544.901 128.262 545.698 128.56C546.595 128.859 547.193 130.452 547.393 131.05Z" fill="#455A64"/>
    <path d="M542.11 128.461C542.11 128.461 545.1 124.079 547.094 125.175C549.087 126.27 546.794 132.544 544.502 133.44C542.21 134.336 541.313 132.145 541.313 132.145L542.11 128.461Z" fill="#F7A9A0"/>
    <path d="M546.495 126.867C544.901 127.565 544.004 129.158 543.406 130.652C543.904 130.054 544.502 129.755 545.399 130.253V130.353C544.701 130.253 544.203 130.353 543.804 130.851C543.505 131.249 543.306 131.747 543.007 132.145C542.907 132.245 542.708 132.245 542.708 132.046C542.608 130.054 544.203 127.166 546.495 126.867Z" fill="#263238"/>
    <path d="M548.29 144.991C547.094 147.182 546.296 149.174 544.901 151.066C543.605 152.759 542.01 154.352 539.917 154.95C537.924 155.547 535.831 155.447 534.635 153.157C533.638 151.265 533.339 149.273 533.239 146.684C533.239 146.585 533.04 146.585 533.04 146.684C533.239 150.07 533.638 155.149 536.827 155.746C540.416 156.344 543.306 154.053 545.2 151.365C546.595 149.473 547.393 147.381 548.29 144.991C548.389 144.991 548.29 144.892 548.29 144.991Z" fill="#263238"/>
    <path d="M572.41 224.557H508.72V227.445H572.41V224.557Z" fill="#C7C7C7"/>
    <path d="M508.72 224.557V227.346H551.977L549.785 224.557H508.72Z" fill="#A6A6A6"/>
    <path d="M547.094 227.346H484.999L479.816 185.223H541.911L547.094 227.346Z" fill="#C7C7C7"/>
    <path d="M517.192 206.334C517.192 208.425 515.598 210.118 513.504 210.118C511.411 210.118 509.717 208.425 509.617 206.334C509.617 204.243 511.212 202.55 513.305 202.55C515.498 202.55 517.192 204.243 517.192 206.334Z" fill="#FCF2D5"/>
    </g>
    <defs>
    <clipPath id="clip0_5_2">
    <rect width="636" height="405" fill="white"/>
    </clipPath>
    </defs>
    </svg>
    