<svg width="290" height="76" viewBox="0 0 290 76" fill="none" xmlns="http://www.w3.org/2000/svg">
    <g clip-path="url(#clip0_5_575)">
    <path d="M64.4461 57.3192H73.6635V59.3282H64.4461V57.3192ZM68.002 58.5962H70.0864V72.9375H67.9899L68.002 58.5962Z" fill="black"/>
    <path d="M74.7922 72.6252C74.2195 72.3152 73.757 71.8323 73.4694 71.244C73.1464 70.5624 72.9893 69.8127 73.0112 69.0575V65.6C72.9898 64.8517 73.1469 64.1091 73.4694 63.4349C73.7594 62.853 74.2217 62.3767 74.7922 62.0721C75.4409 61.7437 76.1602 61.5827 76.8857 61.6035C77.6063 61.5833 78.3205 61.7443 78.964 62.0721C79.535 62.375 79.9968 62.8519 80.2838 63.4349C80.6027 64.1101 80.7577 64.8523 80.7359 65.6V69.0912C80.758 69.8389 80.603 70.5812 80.2838 71.2563C79.9961 71.8404 79.5347 72.319 78.964 72.6252C78.3213 72.9555 77.6067 73.1177 76.8857 73.0968C76.1598 73.1183 75.4402 72.9561 74.7922 72.6252ZM78.1782 70.5366C78.5087 70.115 78.673 69.5848 78.6394 69.0483V65.6429C78.6731 65.11 78.5087 64.5837 78.1782 64.1668C77.8251 63.8326 77.3591 63.6467 76.8751 63.6467C76.391 63.6467 75.9251 63.8326 75.572 64.1668C75.2404 64.5832 75.0748 65.1096 75.1078 65.6429V69.0483C75.0753 69.5852 75.2406 70.1153 75.572 70.5366C75.9223 70.8763 76.3893 71.066 76.8751 71.066C77.3609 71.066 77.8279 70.8763 78.1782 70.5366Z" fill="black"/>
    <path d="M84.6286 69.2228C84.5975 69.7173 84.7598 70.2044 85.0806 70.5795C85.2534 70.746 85.4586 70.8745 85.6832 70.9567C85.9078 71.039 86.1469 71.0732 86.3853 71.0572C86.6182 71.0735 86.852 71.0426 87.073 70.9664C87.2939 70.8901 87.4975 70.77 87.6717 70.6131C87.8286 70.441 87.9493 70.2385 88.0265 70.018C88.1036 69.7975 88.1357 69.5634 88.1208 69.33L88.2694 71.1674C88.0862 71.7203 87.7478 72.2076 87.2955 72.57C86.827 72.92 86.2547 73.0992 85.6723 73.0784C84.6589 73.0784 83.8792 72.7507 83.3421 72.0923C82.8051 71.4339 82.532 70.4876 82.532 69.2565V61.7873H84.6286V69.2228ZM88.1208 61.7781H90.2051V72.9283H88.1208V61.7781Z" fill="black"/>
    <path d="M92.4807 61.7873H94.5772V72.9375H92.4807V61.7873ZM97.5991 63.7595C97.4031 63.6961 97.1982 63.6651 96.9923 63.6676C96.3522 63.6286 95.7219 63.8403 95.2326 64.2586C95.0161 64.4705 94.8467 64.7264 94.7358 65.0094C94.6249 65.2925 94.575 65.5961 94.5894 65.9001L94.3649 63.7319C94.6753 63.1008 95.1413 62.5609 95.718 62.1639C96.2549 61.796 96.8895 61.6007 97.5385 61.6035C97.7698 61.6017 97.9996 61.6401 98.2181 61.7168C98.4162 61.7885 98.5979 61.9 98.7521 62.0445L98.0482 64.032C97.9222 63.9063 97.7682 63.8129 97.5991 63.7595Z" fill="black"/>
    <path d="M101.231 72.8058C100.711 72.6325 100.244 72.3253 99.8777 71.9147C99.5138 71.4871 99.254 70.9795 99.1192 70.4325L100.979 69.5964C101.149 70.0729 101.449 70.4911 101.844 70.803C102.227 71.0795 102.69 71.2215 103.161 71.2073C103.684 71.243 104.205 71.1031 104.641 70.8091C104.811 70.6748 104.946 70.501 105.034 70.3026C105.123 70.1043 105.163 69.8872 105.151 69.6699C105.159 69.5295 105.138 69.3889 105.09 69.2571C105.041 69.1252 104.966 69.0051 104.869 68.9043C104.672 68.7155 104.434 68.5768 104.174 68.5001C103.788 68.3897 103.398 68.2998 103.003 68.2306L102.869 68.2092L102.715 68.1877C102.695 68.1756 102.673 68.1673 102.651 68.1632C102.627 68.1599 102.602 68.1599 102.578 68.1632C102.037 68.0646 101.508 67.9065 101 67.6916C100.563 67.4934 100.19 67.1751 99.9232 66.7729C99.6093 66.2523 99.4581 65.6482 99.4894 65.0396C99.4681 64.3901 99.6178 63.7466 99.9232 63.1745C100.213 62.6655 100.656 62.2632 101.188 62.0261C101.832 61.7476 102.528 61.6139 103.227 61.6341C103.829 61.6226 104.429 61.7116 105.002 61.8975C105.477 62.054 105.907 62.3264 106.252 62.6907C106.598 63.075 106.855 63.5321 107.005 64.029L105.121 64.8681C104.974 64.4647 104.713 64.1134 104.371 63.8575C104.005 63.631 103.582 63.5142 103.152 63.5207C102.723 63.5273 102.304 63.6568 101.944 63.8942C101.795 64.0341 101.68 64.2056 101.605 64.3963C101.531 64.587 101.499 64.7921 101.513 64.9967C101.506 65.1287 101.526 65.2609 101.572 65.3847C101.618 65.5086 101.689 65.6215 101.78 65.7164C101.973 65.8966 102.206 66.0269 102.46 66.0961C102.842 66.2004 103.23 66.2812 103.622 66.338C103.635 66.3429 103.65 66.3429 103.664 66.338H103.716L103.77 66.3533H103.822C104.406 66.4482 104.98 66.5989 105.536 66.8035C106.012 66.9945 106.419 67.3279 106.701 67.759C107.047 68.3328 107.212 68.9993 107.175 69.6699C107.195 70.3256 107.035 70.9742 106.713 71.5441C106.393 72.0672 105.916 72.4737 105.351 72.7048C104.652 72.9857 103.904 73.1191 103.151 73.0968C102.5 73.1096 101.85 73.0112 101.231 72.8058Z" fill="black"/>
    <path d="M115.937 66.9658C115.686 67.1922 115.489 67.4728 115.36 67.7867C115.231 68.1005 115.175 68.4396 115.194 68.7788C115.174 69.1104 115.224 69.4425 115.341 69.7529C115.459 70.0634 115.64 70.3451 115.873 70.5795C116.411 71.0335 117.1 71.2616 117.8 71.2165C118.528 71.2335 119.237 70.9733 119.784 70.4876C120.387 69.9121 120.822 69.18 121.04 68.3715C121.35 67.2861 121.495 66.1596 121.471 65.0304H123.449C123.487 66.5184 123.245 68.0002 122.736 69.3974C122.354 70.5173 121.623 71.4825 120.654 72.1491C119.684 72.8158 118.526 73.1482 117.354 73.0968C116.57 73.1189 115.792 72.9454 115.09 72.5915C114.471 72.2647 113.971 71.7478 113.661 71.1154C113.316 70.3869 113.148 69.586 113.17 68.7788C113.17 67.5538 113.518 66.5698 114.214 65.8266C114.909 65.0835 115.892 64.6568 117.163 64.5465L118.033 66.3197C117.133 66.3197 116.434 66.5351 115.937 66.9658ZM116.847 66.5984C116.408 66.0407 116.013 65.4489 115.667 64.8283C115.355 64.2637 115.108 63.6646 114.933 63.0429C114.762 62.432 114.676 61.8003 114.678 61.1656C114.678 59.8896 115.002 58.9086 115.652 58.2226C116.301 57.5367 117.221 57.1927 118.413 57.1906C119.596 57.1906 120.506 57.5254 121.143 58.1951C121.78 58.8647 122.101 59.8192 122.105 61.0584V61.7444H120.021V61.0584C120.054 60.5707 119.904 60.0882 119.599 59.7079C119.445 59.548 119.258 59.4236 119.052 59.3433C118.845 59.2629 118.624 59.2285 118.404 59.2424C118.177 59.2288 117.951 59.2665 117.741 59.3529C117.531 59.4393 117.342 59.5721 117.19 59.7416C116.885 60.1499 116.734 60.655 116.765 61.1656C116.767 61.6306 116.831 62.0931 116.956 62.5407C117.091 63.0243 117.281 63.4908 117.521 63.931C117.785 64.4192 118.09 64.8842 118.431 65.3213L124.499 72.9376H121.847L116.847 66.5984Z" fill="black"/>
    <path d="M128.643 57.3192H137.861V59.3282H128.643V57.3192ZM132.199 58.5962H134.296V72.9375H132.193L132.199 58.5962Z" fill="black"/>
    <path d="M137.788 61.7873H139.885V72.9375H137.788V61.7873ZM142.903 63.7595C142.707 63.696 142.503 63.665 142.297 63.6676C141.656 63.6282 141.024 63.8399 140.534 64.2586C140.317 64.4705 140.148 64.7264 140.037 65.0095C139.926 65.2925 139.876 65.5961 139.891 65.9001L139.666 63.7319C139.977 63.1008 140.443 62.5609 141.019 62.164C141.556 61.796 142.191 61.6007 142.84 61.6035C143.071 61.6015 143.301 61.6399 143.519 61.7168C143.718 61.7885 143.899 61.9 144.053 62.0445L143.349 64.032C143.224 63.9067 143.071 63.8133 142.903 63.7595Z" fill="black"/>
    <path d="M145.792 72.2852C145.232 71.7401 144.95 70.9163 144.948 69.8139C144.948 68.641 145.252 67.759 145.837 67.171C146.423 66.583 147.324 66.2921 148.523 66.2921H150.792L150.941 68.0836H148.513C148.295 68.0667 148.075 68.0964 147.869 68.1708C147.662 68.2452 147.474 68.3626 147.315 68.5154C147.023 68.8811 146.881 69.3457 146.918 69.8139C146.901 70.0217 146.932 70.2306 147.009 70.4244C147.085 70.6182 147.204 70.7917 147.357 70.9317C147.748 71.2027 148.219 71.3312 148.692 71.2961C149.214 71.3328 149.735 71.2112 150.188 70.947C150.353 70.828 150.485 70.6684 150.571 70.4835C150.658 70.2986 150.696 70.0945 150.683 69.8904L150.907 71.1889C150.827 71.5773 150.661 71.9426 150.422 72.2577C150.201 72.5416 149.91 72.7623 149.578 72.8977C149.182 73.0438 148.762 73.1144 148.34 73.106C147.206 73.0998 146.356 72.8263 145.792 72.2852ZM150.704 65.3244C150.719 65.0764 150.686 64.8277 150.606 64.5928C150.526 64.3578 150.4 64.1412 150.237 63.9555C150.063 63.7858 149.855 63.6547 149.628 63.5703C149.401 63.4859 149.159 63.4502 148.917 63.4655C148.533 63.4582 148.155 63.5589 147.825 63.7564C147.511 63.9462 147.262 64.2269 147.109 64.5618L145.331 64.0167C145.518 63.2911 145.963 62.6602 146.581 62.2436C147.274 61.8005 148.085 61.5795 148.905 61.6097C149.616 61.5901 150.321 61.7391 150.965 62.0445C151.518 62.3188 151.973 62.7583 152.27 63.3032C152.582 63.9149 152.735 64.5966 152.716 65.2846V72.9406H150.704V65.3244Z" fill="black"/>
    <path d="M160.343 61.7873H162.467L158.89 72.9376H157.273L153.699 61.7873H155.822L158.068 69.8751L160.343 61.7873Z" fill="black"/>
    <path d="M165.204 72.5915C164.597 72.2547 164.109 71.737 163.805 71.1093C163.463 70.3724 163.297 69.5647 163.32 68.7512V66.1604C163.299 65.3191 163.459 64.4832 163.79 63.7105C164.073 63.0626 164.546 62.5183 165.146 62.1517C165.799 61.7782 166.541 61.5929 167.291 61.6158C168.02 61.594 168.74 61.7865 169.363 62.1701C169.957 62.5605 170.417 63.1262 170.68 63.7901C171 64.6053 171.153 65.477 171.132 66.3533V68.2092H164.809V66.4667H169.13V65.8542C169.159 65.241 168.983 64.6358 168.629 64.1362C168.47 63.9345 168.266 63.7738 168.033 63.6674C167.801 63.5609 167.546 63.5116 167.291 63.5237C167.014 63.509 166.737 63.5617 166.484 63.6774C166.231 63.793 166.01 63.9682 165.838 64.1882C165.463 64.7347 165.281 65.3928 165.322 66.0563V68.8125C165.282 69.4287 165.48 70.0367 165.874 70.509C166.075 70.717 166.317 70.8792 166.585 70.9849C166.853 71.0905 167.14 71.1371 167.428 71.1215C167.806 71.1384 168.18 71.031 168.493 70.8153C168.783 70.5971 168.996 70.2898 169.099 69.9394L171.017 70.5519C170.864 71.3214 170.431 72.0052 169.803 72.469C169.1 72.9249 168.274 73.1486 167.44 73.109C166.663 73.1321 165.893 72.9539 165.204 72.5915Z" fill="black"/>
    <path d="M175.246 70.016C175.231 70.2637 175.299 70.5094 175.438 70.7142C175.502 70.7954 175.586 70.8599 175.68 70.9025C175.774 70.9451 175.877 70.9645 175.981 70.9592H176.8V72.959H175.738C175.382 72.9792 175.027 72.9203 174.697 72.7864C174.366 72.6525 174.069 72.4469 173.826 72.1842C173.374 71.6697 173.15 70.9408 173.15 70.0037V57.3192H175.246V70.016Z" fill="black"/>
    <path d="M179.412 72.8059C178.892 72.6333 178.425 72.326 178.059 71.9147C177.694 71.4873 177.433 70.9797 177.297 70.4325L179.16 69.5964C179.329 70.0726 179.628 70.4909 180.022 70.803C180.406 71.0795 180.87 71.2215 181.342 71.2073C181.865 71.2426 182.386 71.1026 182.822 70.8092C182.992 70.6748 183.127 70.501 183.216 70.3027C183.304 70.1043 183.344 69.8872 183.332 69.6699C183.34 69.5295 183.32 69.3889 183.271 69.2571C183.222 69.1253 183.147 69.0051 183.05 68.9043C182.853 68.7149 182.614 68.5762 182.352 68.5001C181.968 68.3893 181.578 68.2994 181.184 68.2306L181.05 68.2092L180.896 68.1877C180.876 68.1756 180.855 68.1673 180.832 68.1632C180.807 68.1598 180.781 68.1598 180.756 68.1632C180.216 68.0642 179.688 67.9061 179.182 67.6916C178.744 67.4928 178.37 67.1746 178.101 66.7729C177.79 66.2512 177.64 65.6477 177.671 65.0396C177.65 64.3906 177.799 63.7476 178.101 63.1746C178.393 62.6658 178.837 62.2637 179.37 62.0262C180.012 61.7479 180.707 61.6141 181.405 61.6342C182.008 61.6223 182.609 61.7113 183.183 61.8975C183.658 62.0549 184.087 62.3272 184.433 62.6907C184.779 63.0744 185.036 63.5318 185.183 64.029L183.302 64.8681C183.154 64.4645 182.892 64.1133 182.549 63.8575C182.183 63.6303 181.76 63.5131 181.33 63.5196C180.901 63.5261 180.481 63.6561 180.122 63.8942C179.973 64.0337 179.857 64.2051 179.782 64.396C179.708 64.5868 179.677 64.7921 179.691 64.9967C179.683 65.1288 179.703 65.2612 179.749 65.3851C179.795 65.5091 179.866 65.6219 179.958 65.7164C180.151 65.8966 180.384 66.0269 180.638 66.0961C181.019 66.2005 181.406 66.2813 181.797 66.338C181.812 66.3424 181.828 66.3424 181.842 66.338H181.894L181.949 66.3534H182C182.584 66.4482 183.158 66.5989 183.714 66.8035C184.19 66.9945 184.597 67.328 184.879 67.759C185.225 68.3328 185.391 68.9993 185.353 69.6699C185.374 70.3261 185.213 70.9751 184.889 71.5441C184.57 72.0686 184.092 72.4755 183.526 72.7048C182.828 72.9857 182.081 73.1191 181.33 73.0968C180.679 73.1093 180.031 73.0109 179.412 72.8059Z" fill="black"/>
    <path d="M54.7857 26.4136C54.7857 42.1176 38.5324 61.0495 27.3944 75.9971C16.135 60.4431 0 42.1176 0 26.4136C0 14.856 6.63849 4.91233 16.1715 0.462634C16.4945 0.311498 16.8441 0.2268 17.1999 0.213479C17.5558 0.200158 17.9107 0.258482 18.2439 0.385047C18.5772 0.511613 18.8821 0.703888 19.141 0.950658C19.3998 1.19743 19.6074 1.49375 19.7516 1.82235L20.9652 4.59383C21.2456 5.23563 21.2685 5.96212 21.0291 6.62059C20.7898 7.27907 20.3069 7.81825 19.6818 8.1248C16.1179 9.89151 13.2507 12.8228 11.5461 16.4424C9.84148 20.0619 9.39972 24.157 10.2926 28.062C11.1855 31.967 13.3605 35.4525 16.4642 37.952C19.5679 40.4515 23.4178 41.8181 27.3883 41.8298C27.5279 41.8298 27.6705 41.8298 27.8101 41.8298C31.7881 41.7253 35.6137 40.263 38.6624 37.6815C41.7111 35.1 43.8029 31.5517 44.5965 27.6158C45.39 23.6798 44.8385 19.5886 43.0318 16.0097C41.2251 12.4309 38.27 9.57582 34.6488 7.91043C34.0607 7.63627 33.6034 7.1391 33.3762 6.52678C33.149 5.91447 33.1702 5.23642 33.4352 4.63977L34.8217 1.48854C35.0829 0.889141 35.5677 0.417886 36.1709 0.177077C36.7742 -0.0637321 37.4472 -0.0546579 38.0439 0.202329C47.8802 4.51421 54.7857 14.6263 54.7857 26.4136Z" fill="#FAA916"/>
    <path d="M27.3944 37.2114C34.6651 37.2114 40.5591 31.2622 40.5591 23.9236C40.5591 16.5849 34.6651 10.6357 27.3944 10.6357C20.1237 10.6357 14.2297 16.5849 14.2297 23.9236C14.2297 31.2622 20.1237 37.2114 27.3944 37.2114Z" fill="black"/>
    <path d="M36.4085 19.6607L36.6391 19.0482C36.6836 18.9321 36.7019 18.8075 36.6928 18.6834C36.6836 18.5593 36.6472 18.4388 36.5862 18.3306C36.5252 18.2224 36.4412 18.1293 36.3401 18.058C36.2391 17.9866 36.1236 17.9389 36.002 17.9182L35.3769 17.811C34.8075 17.7131 34.2218 17.8044 33.7082 18.0713L30.3101 19.8414C26.3804 21.8767 22.7861 24.5129 19.6545 27.6567C19.6045 27.7081 19.572 27.7743 19.562 27.8456C19.552 27.917 19.5649 27.9897 19.5989 28.0531C19.6328 28.1165 19.686 28.1672 19.7506 28.1979C19.8153 28.2285 19.8879 28.2374 19.9579 28.2232C24.2377 27.1276 28.3241 25.3716 32.0729 23.0171L35.2981 20.9837C35.8028 20.6786 36.1933 20.2134 36.4085 19.6607Z" fill="#FAA916"/>
    <path d="M31.7482 19.973L21.8117 16.7881C21.6515 16.7365 21.4788 16.7403 21.321 16.799C21.1632 16.8576 21.0293 16.9677 20.9405 17.1118C20.8517 17.256 20.8131 17.4259 20.8307 17.5947C20.8484 17.7635 20.9213 17.9215 21.038 18.0437L25.9957 23.2682L31.7482 19.973Z" fill="#FAA916"/>
    <path d="M32.7131 21.688L30.3222 31.9318C30.2844 32.0974 30.1927 32.2456 30.0619 32.3526C29.9311 32.4597 29.7686 32.5196 29.6002 32.5228C29.4318 32.5259 29.2671 32.4722 29.1325 32.3701C28.9978 32.268 28.9007 32.1235 28.8568 31.9593L26.9605 24.9831L32.7131 21.688Z" fill="#FAA916"/>
    <path d="M22.0817 26.2296L18.4652 25.0689C18.4066 25.0501 18.3434 25.0515 18.2857 25.073C18.2281 25.0945 18.1791 25.1349 18.1467 25.1876C18.1143 25.2404 18.1003 25.3025 18.1069 25.3642C18.1134 25.426 18.1402 25.4837 18.183 25.5283L19.9883 27.427L22.0817 26.2296Z" fill="#FAA916"/>
    <path d="M22.4338 26.8543L21.563 30.5813C21.5475 30.6408 21.5128 30.6935 21.4645 30.731C21.4162 30.7686 21.357 30.789 21.296 30.789C21.235 30.789 21.1757 30.7686 21.1274 30.731C21.0791 30.6935 21.0445 30.6408 21.029 30.5813L20.3281 28.0517L22.4338 26.8543Z" fill="#FAA916"/>
    <path d="M64.5523 1.59552H69.5949V39.3367H64.5523V1.59552ZM67.641 34.5624H75.7661C77.6513 34.5624 79.048 34.1684 79.9562 33.3803C80.8643 32.5923 81.3194 31.4806 81.3215 30.0454V27.5281C81.3485 26.538 81.1589 25.554 80.7662 24.6463C80.4165 23.8662 79.8257 23.2215 79.0823 22.8089C78.2168 22.3595 77.2517 22.1412 76.2789 22.175H67.641V17.468H76.2789C77.7716 17.468 78.9033 17.0658 79.674 16.2614C80.4446 15.457 80.831 14.276 80.833 12.7182V10.7858C80.833 9.33221 80.4173 8.2328 79.586 7.48761C78.7516 6.74344 77.5411 6.37289 75.9451 6.37289H67.641V1.59552H76.382C78.4573 1.59552 80.206 1.95076 81.6279 2.66124C82.9925 3.3151 84.1179 4.38675 84.844 5.72366C85.598 7.19297 85.9697 8.83162 85.9241 10.4857V12.51C85.9315 13.669 85.7044 14.8174 85.2566 15.8848C84.8314 16.8987 84.1593 17.7878 83.3027 18.4694C82.372 19.1892 81.2818 19.6696 80.1261 19.869C81.3264 20.0205 82.467 20.4844 83.4362 21.2151C84.4053 21.9457 85.1696 22.9182 85.6541 24.0369C86.1652 25.2182 86.4197 26.4964 86.4005 27.7853V30.3302C86.4441 32.003 86.054 33.6583 85.2688 35.132C84.5171 36.4791 83.3789 37.5649 82.0041 38.2465C80.4242 39.0089 78.6878 39.3825 76.9373 39.3367H67.641V34.5624Z" fill="black"/>
    <path d="M95.5208 32.2779C95.4845 32.8764 95.6468 33.4702 95.982 33.9653C96.1379 34.1633 96.3385 34.3209 96.5671 34.4248C96.7956 34.5286 97.0455 34.5759 97.2957 34.5624H99.2739V39.3888H96.7041C94.7138 39.3888 93.1745 38.7661 92.0863 37.5207C90.9981 36.2753 90.454 34.5185 90.454 32.2503V1.59552H95.5208V32.2779Z" fill="black"/>
    <path d="M103.097 37.7535C101.734 36.4387 101.053 34.4491 101.055 31.7848C101.055 28.947 101.77 26.8186 103.2 25.3997C104.63 23.9807 106.795 23.2662 109.696 23.256H115.197L115.558 27.5893H109.72C108.434 27.5893 107.469 27.9354 106.826 28.6275C106.182 29.3196 105.862 30.3669 105.864 31.7695C105.864 32.9802 106.219 33.8795 106.929 34.4675C107.639 35.0555 108.715 35.3495 110.157 35.3495C111.775 35.3495 112.98 35.0687 113.771 34.5073C114.561 33.9459 114.96 33.0935 114.966 31.9502L115.506 35.0922C115.312 36.0303 114.912 36.9125 114.335 37.6738C113.789 38.3624 113.07 38.8911 112.254 39.205C111.294 39.5611 110.278 39.7325 109.256 39.7103C106.513 39.7206 104.46 39.0683 103.097 37.7535ZM114.966 20.9347C114.966 19.5178 114.589 18.4143 113.834 17.6242C113.08 16.8341 112.017 16.4401 110.646 16.4421C109.72 16.4254 108.809 16.6682 108.012 17.1434C107.256 17.6055 106.652 18.2832 106.277 19.0911L101.98 17.7743C102.438 16.0186 103.517 14.4933 105.014 13.4869C106.513 12.4661 108.386 11.9557 110.633 11.9557C112.346 11.91 114.046 12.2686 115.597 13.003C116.933 13.6619 118.034 14.7235 118.746 16.0409C119.503 17.5213 119.875 19.1715 119.827 20.8367V39.3428H114.972L114.966 20.9347Z" fill="black"/>
    <path d="M128.51 38.5987C127.067 37.8623 125.892 36.6829 125.154 35.23C124.384 33.7417 123.998 31.9594 123.998 29.883V21.9453C123.998 19.8526 124.384 18.058 125.154 16.5615C125.892 15.0974 127.065 13.9033 128.51 13.1469C129.974 12.3691 131.736 11.9802 133.795 11.9802C135.306 11.9421 136.81 12.2065 138.219 12.758C139.416 13.2473 140.453 14.0653 141.214 15.1191C142.013 16.2712 142.522 17.6033 142.694 18.9992L138.049 20.4661C137.873 19.4214 137.369 18.4616 136.611 17.7283C135.852 17.0759 134.876 16.7378 133.88 16.782C132.371 16.782 131.193 17.2312 130.346 18.1295C129.498 19.0278 129.073 20.2997 129.071 21.9453V29.8647C129.071 31.4735 129.492 32.7148 130.333 33.5886C131.175 34.4624 132.357 34.8993 133.88 34.8993C134.878 34.9424 135.857 34.6156 136.632 33.9806C137.336 33.3681 137.816 32.4687 138.073 31.2826L142.752 32.8658C142.546 34.2344 142.026 35.5357 141.235 36.6663C140.476 37.7081 139.435 38.5067 138.237 38.9662C136.819 39.4976 135.314 39.7553 133.801 39.7256C131.74 39.7256 129.976 39.35 128.51 38.5987Z" fill="black"/>
    <path d="M145.68 1.59552H150.746V39.3367H145.68V1.59552ZM147.97 29.3441L160.134 12.3936H165.789L147.919 35.5363L147.97 29.3441ZM153.626 24.5422L156.763 20.9071L166.973 39.3367H161.445L153.626 24.5422Z" fill="black"/>
    <path d="M179.455 1.59551H185.602V39.3367H179.455V1.59551ZM182.413 18.745H194.37C195.286 18.7659 196.19 18.5272 196.979 18.056C197.737 17.5856 198.345 16.9053 198.73 16.096C199.161 15.1868 199.376 14.1885 199.358 13.1806C199.384 12.1595 199.176 11.1461 198.751 10.2193C198.368 9.40506 197.76 8.72009 197 8.24708C196.209 7.76981 195.301 7.52679 194.379 7.54578H182.413V1.59551H194.179C196.273 1.55062 198.344 2.04715 200.195 3.0379C201.9 3.97136 203.302 5.38128 204.234 7.09867C205.227 8.96663 205.726 11.0612 205.684 13.1806C205.73 15.2922 205.235 17.3799 204.246 19.2412C203.316 20.9554 201.913 22.3607 200.207 23.2866C198.348 24.2633 196.274 24.749 194.179 24.6984H182.413V18.745Z" fill="#FAA916"/>
    <path d="M212.143 38.3261C210.388 37.4195 208.959 35.98 208.057 34.2102C207.114 32.4034 206.642 30.2189 206.64 27.6566V24.6187C206.64 21.9646 207.09 19.6893 207.99 17.7926C208.827 15.9764 210.206 14.4698 211.934 13.4838C213.649 12.4977 215.721 12.0046 218.148 12.0046C220.429 12.0046 222.379 12.5804 223.997 13.7318C225.616 14.8833 226.85 16.5482 227.702 18.7266C228.552 20.9071 228.975 23.5377 228.973 26.6185V28.3824H210.833V23.8409H223.254L223.227 23.5561C223.057 21.6696 222.534 20.2068 221.658 19.1676C221.228 18.6569 220.688 18.2514 220.08 17.9819C219.472 17.7124 218.811 17.5859 218.148 17.6119C216.297 17.6119 214.866 18.1958 213.855 19.3636C212.843 20.5314 212.338 22.1882 212.338 24.3339V27.7608C212.338 29.8024 212.886 31.3724 213.982 32.4708C215.078 33.5692 216.622 34.1194 218.612 34.1214C219.638 34.1179 220.654 33.9195 221.607 33.5365C222.58 33.1546 223.48 32.6055 224.267 31.9134L228.281 35.7047C226.952 36.9677 225.404 37.9745 223.715 38.6752C222.099 39.3611 220.365 39.718 218.612 39.7256C216.078 39.7256 213.921 39.2591 212.143 38.3261Z" fill="#FAA916"/>
    <path d="M234.65 37.6616C233.125 36.2855 232.362 34.1969 232.362 31.3959C232.362 28.7275 233.134 26.7287 234.677 25.3996C236.221 24.0706 238.535 23.404 241.619 23.3999H248.767L249.128 28.2293H241.643C240.43 28.2293 239.52 28.4866 238.913 29.0072C238.306 29.5278 238.003 30.3209 238.003 31.3959C238.003 32.5208 238.397 33.3548 239.186 33.8979C239.975 34.4409 241.166 34.7135 242.76 34.7155C244.714 34.7155 246.167 34.5001 247.12 34.0693C248.069 33.6345 248.546 32.9608 248.546 32.042L249.086 35.8854C248.801 36.7356 248.273 37.4816 247.569 38.0291C246.782 38.6271 245.886 39.0631 244.932 39.3122C243.834 39.6081 242.701 39.7523 241.565 39.7409C238.48 39.7307 236.175 39.0376 234.65 37.6616ZM248.537 22.2576C248.537 20.7509 248.096 19.5831 247.214 18.7542C246.332 17.9253 245.084 17.5098 243.47 17.5078C242.439 17.5085 241.415 17.675 240.436 18.0008C239.477 18.31 238.574 18.7744 237.763 19.3759L233.673 15.9C234.792 14.6187 236.204 13.6335 237.787 13.0305C239.591 12.3277 241.512 11.9794 243.446 12.0046C245.709 12.0046 247.646 12.3987 249.256 13.1867C250.807 13.9177 252.097 15.1145 252.948 16.6136C253.794 18.108 254.217 19.9118 254.22 22.0249V39.3367H248.537V22.2576Z" fill="#FAA916"/>
    <path d="M259.678 12.3936H266.086V39.3428H259.684L259.678 12.3936ZM273.028 18.2979C272.359 18.0525 271.651 17.9342 270.94 17.9488C269.397 17.9488 268.201 18.4122 267.354 19.3391C266.506 20.266 266.084 21.5502 266.086 23.1917L265.54 17.0913C266.217 15.6008 267.262 14.3103 268.574 13.3429C269.765 12.468 271.202 11.9992 272.676 12.0046C273.748 11.9908 274.815 12.1713 275.825 12.5375C276.748 12.8775 277.589 13.4097 278.295 14.0993L274.542 19.3054C274.118 18.8567 273.598 18.5121 273.021 18.2979H273.028Z" fill="#FAA916"/>
    <path d="M286.295 31.4204C286.256 31.9759 286.432 32.525 286.787 32.9516C286.967 33.1353 287.184 33.2779 287.423 33.3699C287.662 33.4618 287.918 33.5009 288.174 33.4845H289.994V39.4286H286.656C284.599 39.4286 283 38.8049 281.86 37.5575C280.719 36.3101 280.149 34.5543 280.151 32.2901V1.59552H286.295V31.4204Z" fill="#FAA916"/>
    </g>
    <defs>
    <clipPath id="clip0_5_575">
    <rect width="290" height="76" fill="white"/>
    </clipPath>
    </defs>
    </svg>
    